<svg width="19" height="22" viewBox="0 0 19 22" fill="none" xmlns="http://www.w3.org/2000/svg">
<path d="M12.8393 18.9688H6.16211C6.06453 18.9688 5.98438 19.0477 5.98438 19.1438C5.98438 19.2399 6.06453 19.3188 6.16211 19.3188H12.8393C12.9369 19.3188 13.017 19.2399 13.017 19.1438C13.017 19.0477 12.9369 18.9688 12.8393 18.9688Z" fill="white"/>
<path d="M2.27646 2.23432H4.5382V3.21248L4.70199 3.29142C6.66054 4.26271 7.67815 3.68612 7.71997 3.66209L7.86285 3.57629V2.22402H8.20089V0.580031H10.8042V2.22402H11.1422V3.57629L11.2851 3.66209C11.3269 3.68612 12.3445 4.26615 14.3031 3.29142L14.4668 3.21248V2.23432H16.7286V6.3014L17.3175 7.30702V1.65429H13.8849L13.8779 2.85211C12.7313 3.38409 12.0169 3.29485 11.7346 3.21591V1.64399H11.3966V0H7.61193V1.64399H7.27389V3.21591C6.98464 3.29485 6.27371 3.38066 5.12716 2.85211V2.22402L5.13761 1.65429H1.6875V4.99376C1.87569 4.90452 2.07433 4.82558 2.27646 4.76381V2.23432Z" fill="white"/>
<path d="M16.7271 17.2085C16.7271 19.0859 15.1762 20.6097 13.2735 20.6097H11.7854C10.9455 20.6097 10.1649 20.9598 9.50273 21.3271C8.83711 20.9598 8.05996 20.6097 7.22008 20.6097H5.73201C3.82573 20.6097 2.27841 19.0824 2.27841 17.2085V13.1792C2.07628 13.1174 1.87764 13.0385 1.68945 12.9492V17.2085C1.68945 19.4051 3.50512 21.1932 5.73549 21.1932H7.22357C7.98677 21.1932 8.73256 21.5605 9.35985 21.9174L9.50622 22.0032L9.65259 21.9174C10.2799 21.5605 11.0257 21.1932 11.7889 21.1932H13.2769C15.5073 21.1932 17.323 19.4051 17.323 17.2085V13.3782H16.7271V17.2085Z" fill="white"/>
<path d="M4.41984 17.1836L4.17241 17.5955L3.91801 17.1836H3.78906V17.8494H3.93543V17.4582L4.13407 17.7774H4.20377L4.40242 17.4513L4.4059 17.8494H4.55227V17.1836H4.41984Z" fill="white"/>
<path d="M4.70898 17.8494H4.86232V17.3106H5.18294L5.18642 17.1836H4.70898V17.8494Z" fill="white"/>
<path d="M5.76727 17.1836H5.19922V17.3106H5.41529V17.8494H5.56862V17.3106H5.78469V17.2145L6.03561 17.6744L6.02864 17.6813C6.0147 17.7018 6.00076 17.7156 5.98682 17.7259C5.97288 17.7362 5.95546 17.7396 5.93455 17.7396C5.91712 17.7396 5.89273 17.7362 5.86833 17.7259L5.83 17.8426C5.86833 17.8563 5.90318 17.8666 5.94151 17.8666C5.98682 17.8666 6.02864 17.8529 6.06697 17.8288C6.10531 17.8014 6.14016 17.7636 6.16804 17.7156L6.45729 17.1905H6.30395L6.11925 17.5474L5.94151 17.1905H5.78469H5.76727V17.1836Z" fill="white"/>
<path d="M6.78125 17.3398V17.8512H6.92065L7.17505 17.5458V17.8512H7.32142V17.3398H7.18551L6.9311 17.6419V17.3398H6.78125Z" fill="white"/>
<path d="M8.09826 17.8512V17.3398H7.95538L7.78113 17.635L7.61385 17.3398H7.45703V17.8512H7.59295V17.5423L7.7428 17.7998H7.80901L7.96235 17.5458V17.8512H8.09826Z" fill="white"/>
<path d="M8.35367 17.8302C8.37109 17.8131 8.38155 17.789 8.38155 17.765C8.38155 17.7376 8.37109 17.717 8.35367 17.6998C8.33624 17.6826 8.31185 17.6758 8.28745 17.6758C8.25957 17.6758 8.23866 17.6826 8.22124 17.6998C8.20381 17.717 8.19336 17.7376 8.19336 17.765C8.19336 17.7925 8.20381 17.8131 8.22124 17.8302C8.23866 17.8474 8.26306 17.8577 8.28745 17.8577C8.31533 17.8577 8.33624 17.8474 8.35367 17.8302Z" fill="white"/>
<path d="M8.90334 17.5749H9.21001V17.8494H9.36684V17.1836H9.21001V17.4444H8.90334V17.1836H8.75V17.8494H8.90334V17.5749Z" fill="white"/>
<path d="M9.63687 17.8302C9.6543 17.8131 9.66475 17.789 9.66475 17.765C9.66475 17.7376 9.6543 17.717 9.63687 17.6998C9.61945 17.6826 9.59505 17.6758 9.57066 17.6758C9.54278 17.6758 9.52187 17.6826 9.50444 17.6998C9.48702 17.717 9.47656 17.7376 9.47656 17.765C9.47656 17.7925 9.48702 17.8131 9.50444 17.8302C9.52187 17.8474 9.54626 17.8577 9.57066 17.8577C9.59505 17.8577 9.61945 17.8474 9.63687 17.8302Z" fill="white"/>
<path d="M9.97648 17.7313C9.90678 17.7313 9.85102 17.7039 9.80224 17.6524L9.70117 17.745C9.73254 17.7828 9.77436 17.8137 9.81966 17.8343C9.86845 17.8549 9.92072 17.8652 9.97997 17.8652C10.0462 17.8652 10.1054 17.8514 10.1612 17.8205C10.2135 17.7897 10.2553 17.7485 10.2866 17.697C10.318 17.6455 10.3319 17.5872 10.3319 17.5185C10.3319 17.4533 10.318 17.395 10.2866 17.3401C10.2553 17.2886 10.2135 17.2474 10.1612 17.2165C10.1089 17.1856 10.0497 17.1719 9.97997 17.1719C9.92072 17.1719 9.86497 17.1822 9.81966 17.2028C9.77087 17.2234 9.73254 17.2508 9.70117 17.292L9.80224 17.3847C9.85102 17.3332 9.90678 17.3057 9.97648 17.3057C10.0253 17.3057 10.0671 17.3195 10.0985 17.3469C10.1333 17.3744 10.1542 17.4121 10.1647 17.4567H9.89633V17.5734H10.1716C10.1612 17.6215 10.1403 17.6592 10.1054 17.6901C10.0671 17.7176 10.0253 17.7313 9.97648 17.7313Z" fill="white"/>
<path d="M10.5392 17.8302C10.5566 17.8131 10.5671 17.789 10.5671 17.765C10.5671 17.7376 10.5566 17.717 10.5392 17.6998C10.5218 17.6826 10.4974 17.6758 10.473 17.6758C10.4451 17.6758 10.4242 17.6826 10.4068 17.6998C10.3894 17.717 10.3789 17.7376 10.3789 17.765C10.3789 17.7925 10.3894 17.8131 10.4068 17.8302C10.4242 17.8474 10.4486 17.8577 10.473 17.8577C10.4974 17.8577 10.5183 17.8474 10.5392 17.8302Z" fill="white"/>
<path d="M11.4753 17.3072V17.1836H10.9316V17.8494H11.2523C11.3394 17.8494 11.4056 17.8323 11.4544 17.7945C11.5032 17.7568 11.5241 17.7053 11.5241 17.6401C11.5241 17.5783 11.5032 17.5268 11.4614 17.4959C11.4195 17.4616 11.3568 17.4444 11.2732 17.4444H11.085V17.3072H11.4753ZM11.2418 17.5577C11.3254 17.5577 11.3638 17.5852 11.3638 17.6435C11.3638 17.6744 11.3533 17.695 11.3324 17.7121C11.3115 17.7293 11.2801 17.7362 11.2418 17.7362H11.085V17.5577H11.2418Z" fill="white"/>
<path d="M11.6358 17.5894C11.601 17.6169 11.5801 17.6547 11.5801 17.7027C11.5801 17.7336 11.587 17.7576 11.6045 17.7816C11.6184 17.8057 11.6428 17.8228 11.6707 17.8366C11.6986 17.8503 11.7334 17.8571 11.7752 17.8571C11.8519 17.8571 11.9042 17.8331 11.9321 17.7851V17.8503H12.0715V17.5586C12.0715 17.483 12.0505 17.4247 12.0052 17.3869C11.9634 17.3492 11.9007 17.332 11.8205 17.332C11.7787 17.332 11.7369 17.3389 11.6986 17.3492C11.6602 17.3595 11.6254 17.3766 11.5975 17.3938L11.6533 17.4968C11.6707 17.483 11.6951 17.4693 11.723 17.4625C11.7508 17.4556 11.7752 17.4487 11.8031 17.4487C11.8414 17.4487 11.8728 17.459 11.8937 17.4762C11.9146 17.4933 11.9251 17.5174 11.9251 17.5517H11.8066C11.7264 17.5483 11.6707 17.562 11.6358 17.5894ZM11.9216 17.6341V17.6855C11.9146 17.7096 11.9007 17.7267 11.8798 17.737C11.8589 17.7473 11.838 17.7542 11.8101 17.7542C11.7822 17.7542 11.7613 17.7473 11.7474 17.737C11.7334 17.7267 11.723 17.7096 11.723 17.6924C11.723 17.6512 11.7543 17.6341 11.8171 17.6341H11.9216Z" fill="white"/>
<path d="M12.3084 17.9101C12.2945 17.9203 12.2806 17.9238 12.2597 17.9238C12.2457 17.9238 12.2283 17.9203 12.2143 17.9169C12.2004 17.9101 12.1865 17.9032 12.1725 17.8929L12.1168 17.9993C12.1342 18.013 12.1551 18.0267 12.183 18.0336C12.2109 18.0405 12.2353 18.0473 12.2631 18.0473C12.3119 18.0473 12.3537 18.0336 12.3886 18.0096C12.4234 17.9856 12.4513 17.9444 12.4757 17.886L12.7092 17.3438H12.5628L12.4165 17.6904L12.2701 17.3438H12.1133L12.3398 17.8586L12.3363 17.862C12.3328 17.8826 12.3224 17.8998 12.3084 17.9101Z" fill="white"/>
<path d="M13.2737 17.3398L13.0995 17.635L12.9322 17.3398H12.7754V17.8512H12.9113V17.5423L13.0646 17.7998H13.1274L13.2807 17.5458V17.8512H13.4166V17.3398H13.2737Z" fill="white"/>
<path d="M13.7546 17.332C13.7127 17.332 13.6709 17.3389 13.6326 17.3492C13.5942 17.3595 13.5594 17.3766 13.5315 17.3938L13.5873 17.4968C13.6047 17.483 13.6291 17.4693 13.657 17.4625C13.6849 17.4556 13.7092 17.4487 13.7371 17.4487C13.7755 17.4487 13.8068 17.459 13.8277 17.4762C13.8486 17.4933 13.8591 17.5174 13.8591 17.5517H13.7406C13.6639 17.5517 13.6082 17.5654 13.5733 17.5929C13.5385 17.6203 13.5176 17.6581 13.5176 17.7061C13.5176 17.737 13.5245 17.761 13.542 17.7851C13.5559 17.8091 13.5803 17.8263 13.6082 17.84C13.6361 17.8537 13.6709 17.8606 13.7127 17.8606C13.7894 17.8606 13.8417 17.8366 13.8696 17.7885V17.8537H14.009V17.562C14.009 17.4865 13.988 17.4281 13.9427 17.3904C13.894 17.3492 13.8347 17.332 13.7546 17.332ZM13.8521 17.689C13.8452 17.713 13.8312 17.7302 13.8103 17.7405C13.7894 17.7508 13.7685 17.7576 13.7406 17.7576C13.7127 17.7576 13.6918 17.7508 13.6779 17.7405C13.6639 17.7302 13.6535 17.713 13.6535 17.6958C13.6535 17.6547 13.6849 17.6375 13.7476 17.6375H13.8521V17.689Z" fill="white"/>
<path d="M14.5014 17.5389H14.2749V17.3398H14.125V17.8512H14.2749V17.659H14.5014V17.8512H14.6512V17.3398H14.5014V17.5389Z" fill="white"/>
<path d="M14.985 17.332C14.9432 17.332 14.9014 17.3389 14.8631 17.3492C14.8247 17.3595 14.7899 17.3766 14.762 17.3938L14.8177 17.4968C14.8352 17.483 14.8596 17.4693 14.8874 17.4625C14.9153 17.4556 14.9397 17.4487 14.9676 17.4487C15.0059 17.4487 15.0373 17.459 15.0582 17.4762C15.0791 17.4933 15.0896 17.5174 15.0896 17.5517H14.9711C14.8944 17.5517 14.8387 17.5654 14.8038 17.5929C14.769 17.6203 14.748 17.6581 14.748 17.7061C14.748 17.737 14.755 17.761 14.7724 17.7851C14.7864 17.8091 14.8108 17.8263 14.8387 17.84C14.8665 17.8537 14.9014 17.8606 14.9432 17.8606C15.0199 17.8606 15.0721 17.8366 15.1 17.7885V17.8537H15.2394V17.562C15.2394 17.4865 15.2185 17.4281 15.1732 17.3904C15.1279 17.3492 15.0652 17.332 14.985 17.332ZM15.0826 17.689C15.0756 17.713 15.0617 17.7302 15.0408 17.7405C15.0199 17.7508 14.999 17.7576 14.9711 17.7576C14.9432 17.7576 14.9223 17.7508 14.9084 17.7405C14.8944 17.7302 14.884 17.713 14.884 17.6958C14.884 17.6547 14.9153 17.6375 14.9781 17.6375H15.0826V17.689Z" fill="white"/>
<path d="M14.4417 5.41749L12.3298 9.02124L10.2144 5.41406H3.6139C1.62051 5.41406 0 7.01001 0 8.97319C0 10.9364 1.62051 12.5323 3.6139 12.5323C4.37711 12.5323 5.11244 12.2955 5.71882 11.863L5.26926 11.0977C4.79879 11.4546 4.2168 11.6503 3.61042 11.6503C2.1084 11.6503 0.888665 10.449 0.888665 8.96976C0.888665 7.4905 2.1084 6.28926 3.61042 6.28926H7.68434V12.5289H8.57649V6.29269H9.69516L11.8105 9.89987L10.6535 11.8733L11.0404 12.5323H18.6097L18.9965 11.8733L15.2153 5.41749H14.4417ZM11.814 11.6537L14.825 6.51578L17.836 11.6537H11.814Z" fill="white"/>
<path d="M7.31061 16.0958C8.04245 16.0958 8.63838 15.5089 8.63838 14.7881C8.63838 14.0674 8.04245 13.4805 7.31061 13.4805C6.57877 13.4805 5.98633 14.0708 5.98633 14.7915C5.98633 15.5123 6.57877 16.0958 7.31061 16.0958ZM7.31061 14.0193C7.74275 14.0193 8.09124 14.366 8.09124 14.7915C8.09124 15.2171 7.73926 15.5603 7.31061 15.5603C6.87848 15.5603 6.5265 15.2137 6.5265 14.7915C6.52998 14.366 6.87848 14.0193 7.31061 14.0193Z" fill="white"/>
<path d="M4.89027 16.0962C5.28407 16.0962 5.65348 15.9281 5.90439 15.6295L5.48968 15.2862C5.33983 15.4613 5.12028 15.5608 4.89027 15.5608C4.45813 15.5608 4.10964 15.2142 4.10964 14.792C4.10964 14.3664 4.46162 14.0198 4.89027 14.0198C5.12028 14.0198 5.33983 14.1193 5.48968 14.2944L5.90439 13.9511C5.64999 13.656 5.28059 13.4844 4.89027 13.4844C4.15843 13.4844 3.5625 14.0713 3.5625 14.792C3.5625 15.5128 4.15843 16.0962 4.89027 16.0962Z" fill="white"/>
<path d="M14.4694 15.5608V16.0962H15.02V14.0198H15.6194V13.4844H13.877V14.0198H14.4729L14.4694 15.5608Z" fill="white"/>
<path d="M10.9358 15.2416C10.9358 15.0048 10.8382 14.7886 10.6744 14.6307C10.758 14.5106 10.8068 14.3699 10.8068 14.2154C10.8068 13.8139 10.4757 13.4844 10.0645 13.4844H8.91797V16.0962H10.0645C10.5454 16.0962 10.9358 15.7118 10.9358 15.2416ZM9.46162 14.0198H10.0645C10.1726 14.0198 10.2632 14.1056 10.2632 14.212C10.2632 14.3012 10.2004 14.3767 10.1133 14.4008L9.46162 14.5655V14.0198ZM9.46162 15.1181L10.1795 14.9396C10.305 14.9842 10.3921 15.1043 10.3921 15.2416C10.3921 15.4201 10.2457 15.5642 10.0645 15.5642H9.46162V15.1181Z" fill="white"/>
<path d="M12.5118 16.0967C13.0067 16.0967 13.4388 15.829 13.6653 15.4343L13.1914 15.17C13.0554 15.4034 12.8045 15.5613 12.5118 15.5613C12.2678 15.5613 12.0483 15.4515 11.9054 15.2799L13.8361 14.7547C13.8152 14.0512 13.2297 13.4883 12.5118 13.4883C12.0169 13.4883 11.5848 13.756 11.3583 14.1507C11.2502 14.3395 11.1875 14.5591 11.1875 14.7925C11.1875 15.5132 11.7799 16.0967 12.5118 16.0967ZM11.8322 14.4115C11.9681 14.1781 12.219 14.0203 12.5118 14.0203C12.7906 14.0203 13.031 14.1644 13.1704 14.3772L11.7312 14.7685C11.7346 14.6415 11.773 14.5179 11.8322 14.4115Z" fill="white"/>
</svg>
