<svg width="1300" height="671" viewBox="0 0 1300 671" fill="none" xmlns="http://www.w3.org/2000/svg">
    <g filter="url(#filter0_d_0_1)">
        <rect x="10" y="8.95312" width="1280" height="650" rx="35" fill="#FF9301" />
    </g>
    <path
        d="M54.256 67.5611H59.912V82.8491H63.328L76.32 67.5611H82.984L68.48 84.5291L84.776 102.953H77.104L63.72 87.4971H59.912V102.953H54.256V67.5611ZM115.435 75.0651V102.953H109.891V79.8251H99.1951C99.1951 84.8651 98.9711 88.8971 98.6351 91.9211C98.2991 95.0011 97.7391 97.3531 96.9551 99.0331C96.1711 100.713 95.2191 101.833 94.0431 102.393C92.8671 102.953 91.4671 103.233 89.8431 103.233C89.5071 103.233 89.1151 103.233 88.5551 103.233C87.9951 103.233 87.4911 103.177 87.0431 103.065L87.4911 98.3051C87.9391 98.4171 88.3311 98.4731 88.7231 98.4731C89.8431 98.4731 90.7391 98.1371 91.4111 97.4651C92.0831 96.7931 92.6431 95.5611 93.0351 93.7691C93.4271 91.9771 93.7071 89.6251 93.8751 86.6011C94.0431 83.5771 94.1551 79.7691 94.2671 75.0651H115.435ZM119.684 75.0651H126.18L134.02 93.9931L141.748 75.0651H147.572L130.268 113.593H124.276L131.276 99.9291L119.684 75.0651ZM176.017 70.0811C173.889 70.5851 171.705 71.0331 169.409 71.4811C167.057 71.9291 164.929 72.5451 162.913 73.3851C160.897 74.2811 159.161 75.4571 157.705 76.9691C156.249 78.4811 155.297 80.5531 154.905 83.1851C155.801 82.1771 156.753 81.3931 157.761 80.7211C158.769 80.0491 159.777 79.5451 160.841 79.1531C161.905 78.7611 162.969 78.4811 164.033 78.3131C165.097 78.2011 166.105 78.0891 167.113 78.0891C168.793 78.0891 170.305 78.4251 171.761 78.9851C173.217 79.5451 174.449 80.3851 175.513 81.3931C176.521 82.4011 177.361 83.6891 177.977 85.1451C178.537 86.6011 178.873 88.2251 178.873 90.0171C178.873 91.9211 178.537 93.7131 177.865 95.3931C177.193 97.0731 176.241 98.5851 175.009 99.8171C173.777 101.105 172.321 102.113 170.641 102.841C168.905 103.569 167.001 103.905 164.929 103.905C162.353 103.905 160.057 103.513 158.153 102.729C156.249 101.945 154.625 100.881 153.393 99.4251C152.105 98.0251 151.153 96.3451 150.537 94.3851C149.865 92.4251 149.585 90.2411 149.585 87.8891C149.585 84.3051 150.033 81.2811 150.985 78.7051C151.881 76.1291 153.393 73.9451 155.521 72.1531C157.649 70.3611 160.393 68.9051 163.753 67.7291C167.113 66.5531 171.201 65.5451 176.017 64.6491V70.0811ZM165.377 83.1291C164.481 83.1291 163.585 83.2971 162.633 83.5211C161.625 83.7451 160.673 84.1371 159.777 84.5851C158.881 85.0331 157.985 85.6491 157.145 86.3771C156.305 87.1051 155.577 87.9451 155.017 88.8411C155.129 90.2411 155.353 91.5291 155.745 92.7611C156.081 93.9931 156.641 95.0571 157.369 95.9531C158.097 96.8491 159.049 97.5771 160.169 98.0811C161.289 98.6411 162.689 98.8651 164.313 98.8651C165.769 98.8651 167.113 98.6411 168.233 98.1931C169.353 97.7451 170.249 97.1291 170.977 96.3451C171.705 95.5611 172.265 94.6651 172.657 93.6011C172.993 92.5931 173.217 91.4731 173.217 90.2411C173.217 87.7211 172.489 85.9291 171.089 84.8091C169.633 83.6891 167.729 83.1291 165.377 83.1291ZM211.551 75.0651H217.375V102.953H211.551V75.0651ZM184.783 75.0651H190.607V85.0891C191.559 84.8651 192.511 84.6971 193.519 84.5851C194.471 84.4731 195.479 84.4171 196.599 84.4171C200.183 84.4171 203.039 85.2571 205.111 86.8811C207.183 88.5051 208.247 90.8011 208.247 93.7131C208.247 96.5131 207.351 98.7531 205.559 100.433C203.767 102.113 201.247 102.953 198.111 102.953H184.783V75.0651ZM190.607 98.5291H197.103C199.007 98.5291 200.351 98.0811 201.135 97.1291C201.919 96.2331 202.311 95.0571 202.311 93.6011C202.311 92.6491 202.143 91.8651 201.807 91.1931C201.471 90.5771 200.967 90.0731 200.407 89.7371C199.847 89.4011 199.175 89.1211 198.391 89.0091C197.607 88.8971 196.823 88.7851 196.039 88.7851C195.031 88.7851 194.079 88.8971 193.183 89.0091C192.287 89.1211 191.391 89.2891 190.607 89.4571V98.5291Z"
        fill="white" />
    <path
        d="M99 225.978C101.068 225.877 109.778 225.177 117.093 216.578C124.403 207.98 125.244 197.451 125.392 194.953C125.475 197.459 126.053 208.011 133.151 216.874C140.248 225.729 148.938 226.757 151 226.928C148.932 227.029 140.222 227.729 132.907 236.328C125.597 244.927 124.75 255.455 124.608 257.953C124.525 255.447 123.947 244.896 116.849 236.032C109.752 227.177 101.062 226.15 99 225.978Z"
        fill="white" />
    <path
        d="M1097 139.777C1099.27 139.667 1108.81 138.903 1116.83 129.529C1124.85 120.154 1125.77 108.676 1125.93 105.953C1126.02 108.685 1126.65 120.188 1134.43 129.851C1142.21 139.505 1151.74 140.625 1154 140.812C1151.73 140.922 1142.19 141.686 1134.17 151.06C1126.15 160.434 1125.23 171.912 1125.07 174.635C1124.98 171.904 1124.35 160.4 1116.57 150.737C1108.79 141.083 1099.26 139.963 1097 139.777Z"
        fill="white" />
    <defs>
        <filter id="filter0_d_0_1" x="0" y="0.953125" width="1300" height="670"
            filterUnits="userSpaceOnUse" color-interpolation-filters="sRGB">
            <feFlood flood-opacity="0" result="BackgroundImageFix" />
            <feColorMatrix in="SourceAlpha" type="matrix"
                values="0 0 0 0 0 0 0 0 0 0 0 0 0 0 0 0 0 0 127 0" result="hardAlpha" />
            <feOffset dy="2" />
            <feGaussianBlur stdDeviation="5" />
            <feComposite in2="hardAlpha" operator="out" />
            <feColorMatrix type="matrix" values="0 0 0 0 0 0 0 0 0 0 0 0 0 0 0 0 0 0 0.15 0" />
            <feBlend mode="normal" in2="BackgroundImageFix" result="effect1_dropShadow_0_1" />
            <feBlend mode="normal" in="SourceGraphic" in2="effect1_dropShadow_0_1" result="shape" />
        </filter>
    </defs>
</svg>
    