<svg width="1317" height="689" viewBox="0 0 1317 689" fill="none" xmlns="http://www.w3.org/2000/svg">
    <g filter="url(#filter0_d_610_5673)">
        <rect x="27" y="8" width="1280" height="650" rx="35" fill="#FF9301" />
    </g>
    <path
        d="M71.256 66.608H76.912V81.896H80.328L93.32 66.608H99.984L85.48 83.576L101.776 102H94.104L80.72 86.544H76.912V102H71.256V66.608ZM132.435 74.112V102H126.891V78.872H116.195C116.195 83.912 115.971 87.944 115.635 90.968C115.299 94.048 114.739 96.4 113.955 98.08C113.171 99.76 112.219 100.88 111.043 101.44C109.867 102 108.467 102.28 106.843 102.28C106.507 102.28 106.115 102.28 105.555 102.28C104.995 102.28 104.491 102.224 104.043 102.112L104.491 97.352C104.939 97.464 105.331 97.52 105.723 97.52C106.843 97.52 107.739 97.184 108.411 96.512C109.083 95.84 109.643 94.608 110.035 92.816C110.427 91.024 110.707 88.672 110.875 85.648C111.043 82.624 111.155 78.816 111.267 74.112H132.435ZM136.684 74.112H143.18L151.02 93.04L158.748 74.112H164.572L147.268 112.64H141.276L148.276 98.976L136.684 74.112ZM193.017 69.128C190.889 69.632 188.705 70.08 186.409 70.528C184.057 70.976 181.929 71.592 179.913 72.432C177.897 73.328 176.161 74.504 174.705 76.016C173.249 77.528 172.297 79.6 171.905 82.232C172.801 81.224 173.753 80.44 174.761 79.768C175.769 79.096 176.777 78.592 177.841 78.2C178.905 77.808 179.969 77.528 181.033 77.36C182.097 77.248 183.105 77.136 184.113 77.136C185.793 77.136 187.305 77.472 188.761 78.032C190.217 78.592 191.449 79.432 192.513 80.44C193.521 81.448 194.361 82.736 194.977 84.192C195.537 85.648 195.873 87.272 195.873 89.064C195.873 90.968 195.537 92.76 194.865 94.44C194.193 96.12 193.241 97.632 192.009 98.864C190.777 100.152 189.321 101.16 187.641 101.888C185.905 102.616 184.001 102.952 181.929 102.952C179.353 102.952 177.057 102.56 175.153 101.776C173.249 100.992 171.625 99.928 170.393 98.472C169.105 97.072 168.153 95.392 167.537 93.432C166.865 91.472 166.585 89.288 166.585 86.936C166.585 83.352 167.033 80.328 167.985 77.752C168.881 75.176 170.393 72.992 172.521 71.2C174.649 69.408 177.393 67.952 180.753 66.776C184.113 65.6 188.201 64.592 193.017 63.696V69.128ZM182.377 82.176C181.481 82.176 180.585 82.344 179.633 82.568C178.625 82.792 177.673 83.184 176.777 83.632C175.881 84.08 174.985 84.696 174.145 85.424C173.305 86.152 172.577 86.992 172.017 87.888C172.129 89.288 172.353 90.576 172.745 91.808C173.081 93.04 173.641 94.104 174.369 95C175.097 95.896 176.049 96.624 177.169 97.128C178.289 97.688 179.689 97.912 181.313 97.912C182.769 97.912 184.113 97.688 185.233 97.24C186.353 96.792 187.249 96.176 187.977 95.392C188.705 94.608 189.265 93.712 189.657 92.648C189.993 91.64 190.217 90.52 190.217 89.288C190.217 86.768 189.489 84.976 188.089 83.856C186.633 82.736 184.729 82.176 182.377 82.176ZM228.551 74.112H234.375V102H228.551V74.112ZM201.783 74.112H207.607V84.136C208.559 83.912 209.511 83.744 210.519 83.632C211.471 83.52 212.479 83.464 213.599 83.464C217.183 83.464 220.039 84.304 222.111 85.928C224.183 87.552 225.247 89.848 225.247 92.76C225.247 95.56 224.351 97.8 222.559 99.48C220.767 101.16 218.247 102 215.111 102H201.783V74.112ZM207.607 97.576H214.103C216.007 97.576 217.351 97.128 218.135 96.176C218.919 95.28 219.311 94.104 219.311 92.648C219.311 91.696 219.143 90.912 218.807 90.24C218.471 89.624 217.967 89.12 217.407 88.784C216.847 88.448 216.175 88.168 215.391 88.056C214.607 87.944 213.823 87.832 213.039 87.832C212.031 87.832 211.079 87.944 210.183 88.056C209.287 88.168 208.391 88.336 207.607 88.504V97.576Z"
        fill="white" />
    <path
        d="M116 225.025C118.068 224.924 126.778 224.224 134.093 215.625C141.403 207.026 142.244 196.498 142.392 194C142.475 196.506 143.053 207.058 150.151 215.921C157.248 224.776 165.938 225.803 168 225.975C165.932 226.076 157.222 226.776 149.907 235.375C142.597 243.974 141.75 254.502 141.608 257C141.525 254.494 140.947 243.942 133.849 235.079C126.752 226.224 118.062 225.197 116 225.025Z"
        fill="white" />
    <path
        d="M1114 138.824C1116.27 138.713 1125.81 137.95 1133.83 128.576C1141.85 119.201 1142.77 107.723 1142.93 105C1143.02 107.732 1143.65 119.235 1151.43 128.898C1159.21 138.552 1168.74 139.672 1171 139.859C1168.73 139.969 1159.19 140.732 1151.17 150.107C1143.15 159.481 1142.23 170.959 1142.07 173.682C1141.98 170.951 1141.35 159.447 1133.57 149.784C1125.79 140.13 1116.26 139.01 1114 138.824Z"
        fill="white" />
    <defs>
        <filter id="filter0_d_610_5673" x="17" y="0" width="1300" height="670"
            filterUnits="userSpaceOnUse" color-interpolation-filters="sRGB">
            <feFlood flood-opacity="0" result="BackgroundImageFix" />
            <feColorMatrix in="SourceAlpha" type="matrix"
                values="0 0 0 0 0 0 0 0 0 0 0 0 0 0 0 0 0 0 127 0" result="hardAlpha" />
            <feOffset dy="2" />
            <feGaussianBlur stdDeviation="5" />
            <feComposite in2="hardAlpha" operator="out" />
            <feColorMatrix type="matrix" values="0 0 0 0 0 0 0 0 0 0 0 0 0 0 0 0 0 0 0.15 0" />
            <feBlend mode="normal" in2="BackgroundImageFix" result="effect1_dropShadow_610_5673" />
            <feBlend mode="normal" in="SourceGraphic" in2="effect1_dropShadow_610_5673"
                result="shape" />
        </filter>
    </defs>
</svg>
    