<svg width="1328" height="828" viewBox="0 0 1328 828" fill="none" xmlns="http://www.w3.org/2000/svg">
    <g filter="url(#filter0_d_0_1)">
        <rect x="10" y="8" width="1308" height="808" rx="35" fill="#FF9301" />
    </g>
    <path
        d="M54.256 61.608H59.912V76.896H63.328L76.32 61.608H82.984L68.48 78.576L84.776 97H77.104L63.72 81.544H59.912V97H54.256V61.608ZM115.435 69.112V97H109.891V73.872H99.1951C99.1951 78.912 98.9711 82.944 98.6351 85.968C98.2991 89.048 97.7391 91.4 96.9551 93.08C96.1711 94.76 95.2191 95.88 94.0431 96.44C92.8671 97 91.4671 97.28 89.8431 97.28C89.5071 97.28 89.1151 97.28 88.5551 97.28C87.9951 97.28 87.4911 97.224 87.0431 97.112L87.4911 92.352C87.9391 92.464 88.3311 92.52 88.7231 92.52C89.8431 92.52 90.7391 92.184 91.4111 91.512C92.0831 90.84 92.6431 89.608 93.0351 87.816C93.4271 86.024 93.7071 83.672 93.8751 80.648C94.0431 77.624 94.1551 73.816 94.2671 69.112H115.435ZM119.684 69.112H126.18L134.02 88.04L141.748 69.112H147.572L130.268 107.64H124.276L131.276 93.976L119.684 69.112ZM176.017 64.128C173.889 64.632 171.705 65.08 169.409 65.528C167.057 65.976 164.929 66.592 162.913 67.432C160.897 68.328 159.161 69.504 157.705 71.016C156.249 72.528 155.297 74.6 154.905 77.232C155.801 76.224 156.753 75.44 157.761 74.768C158.769 74.096 159.777 73.592 160.841 73.2C161.905 72.808 162.969 72.528 164.033 72.36C165.097 72.248 166.105 72.136 167.113 72.136C168.793 72.136 170.305 72.472 171.761 73.032C173.217 73.592 174.449 74.432 175.513 75.44C176.521 76.448 177.361 77.736 177.977 79.192C178.537 80.648 178.873 82.272 178.873 84.064C178.873 85.968 178.537 87.76 177.865 89.44C177.193 91.12 176.241 92.632 175.009 93.864C173.777 95.152 172.321 96.16 170.641 96.888C168.905 97.616 167.001 97.952 164.929 97.952C162.353 97.952 160.057 97.56 158.153 96.776C156.249 95.992 154.625 94.928 153.393 93.472C152.105 92.072 151.153 90.392 150.537 88.432C149.865 86.472 149.585 84.288 149.585 81.936C149.585 78.352 150.033 75.328 150.985 72.752C151.881 70.176 153.393 67.992 155.521 66.2C157.649 64.408 160.393 62.952 163.753 61.776C167.113 60.6 171.201 59.592 176.017 58.696V64.128ZM165.377 77.176C164.481 77.176 163.585 77.344 162.633 77.568C161.625 77.792 160.673 78.184 159.777 78.632C158.881 79.08 157.985 79.696 157.145 80.424C156.305 81.152 155.577 81.992 155.017 82.888C155.129 84.288 155.353 85.576 155.745 86.808C156.081 88.04 156.641 89.104 157.369 90C158.097 90.896 159.049 91.624 160.169 92.128C161.289 92.688 162.689 92.912 164.313 92.912C165.769 92.912 167.113 92.688 168.233 92.24C169.353 91.792 170.249 91.176 170.977 90.392C171.705 89.608 172.265 88.712 172.657 87.648C172.993 86.64 173.217 85.52 173.217 84.288C173.217 81.768 172.489 79.976 171.089 78.856C169.633 77.736 167.729 77.176 165.377 77.176ZM211.551 69.112H217.375V97H211.551V69.112ZM184.783 69.112H190.607V79.136C191.559 78.912 192.511 78.744 193.519 78.632C194.471 78.52 195.479 78.464 196.599 78.464C200.183 78.464 203.039 79.304 205.111 80.928C207.183 82.552 208.247 84.848 208.247 87.76C208.247 90.56 207.351 92.8 205.559 94.48C203.767 96.16 201.247 97 198.111 97H184.783V69.112ZM190.607 92.576H197.103C199.007 92.576 200.351 92.128 201.135 91.176C201.919 90.28 202.311 89.104 202.311 87.648C202.311 86.696 202.143 85.912 201.807 85.24C201.471 84.624 200.967 84.12 200.407 83.784C199.847 83.448 199.175 83.168 198.391 83.056C197.607 82.944 196.823 82.832 196.039 82.832C195.031 82.832 194.079 82.944 193.183 83.056C192.287 83.168 191.391 83.336 190.607 83.504V92.576Z"
        fill="white" />
    <path
        d="M99 197.086C101.068 196.997 109.778 196.386 117.093 188.879C124.403 181.372 125.244 172.181 125.392 170C125.475 172.187 126.053 181.399 133.151 189.137C140.248 196.868 148.938 197.765 151 197.914C148.932 198.003 140.222 198.614 132.907 206.121C125.597 213.628 124.75 222.819 124.608 225C124.525 222.812 123.947 213.601 116.849 205.863C109.752 198.132 101.062 197.235 99 197.086Z"
        fill="white" />
    <path
        d="M1133 119.548C1135.27 119.452 1144.81 118.785 1152.83 110.595C1160.85 102.406 1161.77 92.379 1161.93 90C1162.02 92.3864 1162.65 102.436 1170.43 110.877C1178.21 119.311 1187.74 120.289 1190 120.452C1187.73 120.548 1178.19 121.215 1170.17 129.405C1162.15 137.594 1161.23 147.621 1161.07 150C1160.98 147.614 1160.35 137.564 1152.57 129.123C1144.79 120.689 1135.26 119.711 1133 119.548Z"
        fill="white" />
    <defs>
        <filter id="filter0_d_0_1" x="0" y="0" width="1328" height="828" filterUnits="userSpaceOnUse"
            color-interpolation-filters="sRGB">
            <feFlood flood-opacity="0" result="BackgroundImageFix" />
            <feColorMatrix in="SourceAlpha" type="matrix" values="0 0 0 0 0 0 0 0 0 0 0 0 0 0 0 0 0 0 127 0"
                result="hardAlpha" />
            <feOffset dy="2" />
            <feGaussianBlur stdDeviation="5" />
            <feComposite in2="hardAlpha" operator="out" />
            <feColorMatrix type="matrix" values="0 0 0 0 0 0 0 0 0 0 0 0 0 0 0 0 0 0 0.15 0" />
            <feBlend mode="normal" in2="BackgroundImageFix" result="effect1_dropShadow_0_1" />
            <feBlend mode="normal" in="SourceGraphic" in2="effect1_dropShadow_0_1" result="shape" />
        </filter>
    </defs>
</svg>