<svg width="48" height="56" viewBox="0 0 48 56" fill="none" xmlns="http://www.w3.org/2000/svg">
<path d="M32.1782 48.2734H15.4435C15.1989 48.2734 14.998 48.4743 14.998 48.7189C14.998 48.9634 15.1989 49.1643 15.4435 49.1643H32.1782C32.4227 49.1643 32.6236 48.9634 32.6236 48.7189C32.6236 48.4743 32.4227 48.2734 32.1782 48.2734Z" fill="#631FB9"/>
<path d="M5.70752 5.68595H11.376V8.17519L11.7865 8.37608C16.6951 10.8479 19.2455 9.38051 19.3503 9.31937L19.7084 9.10102V5.65975H20.5556V1.47608H27.0801V5.65975H27.9273V9.10102L28.2854 9.31937C28.3902 9.38051 30.9406 10.8566 35.8492 8.37608L36.2597 8.17519V5.68595H41.9282V16.036L43.4042 18.5951V4.20987H34.8011L34.7836 7.2581C31.9101 8.6119 30.1196 8.38481 29.4121 8.18393V4.18367H28.5649V0H19.0796V4.18367H18.2323V8.18393C17.5074 8.38481 15.7256 8.60317 12.8521 7.2581V5.65975L12.8783 4.20987H4.23145V12.7082C4.70309 12.4811 5.20094 12.2803 5.70752 12.123V5.68595Z" fill="#631FB9"/>
<path d="M41.9214 43.7981C41.9214 48.5757 38.0347 52.4537 33.2658 52.4537H29.5363C27.4314 52.4537 25.4749 53.3446 23.8154 54.2791C22.1472 53.3446 20.1995 52.4537 18.0945 52.4537H14.365C9.58745 52.4537 5.70947 48.567 5.70947 43.7981V33.5442C5.20289 33.387 4.70504 33.1861 4.2334 32.959V43.7981C4.2334 49.388 8.78391 53.9385 14.3738 53.9385H18.1033C20.0161 53.9385 21.8852 54.873 23.4573 55.7814L23.8242 55.9998L24.191 55.7814C25.7632 54.873 27.6323 53.9385 29.5451 53.9385H33.2745C38.8644 53.9385 43.4149 49.388 43.4149 43.7981V34.0508H41.9214V43.7981Z" fill="#631FB9"/>
<path d="M11.0743 43.7422L10.4545 44.7898L9.81715 43.7422H9.49414V45.4358H9.86081V44.4406L10.3584 45.2525H10.533L11.0306 44.4231L11.0394 45.4358H11.406V43.7422H11.0743Z" fill="#631FB9"/>
<path d="M11.7988 45.4358H12.183V44.0652H12.9861L12.9949 43.7422H11.7988V45.4358Z" fill="#631FB9"/>
<path d="M14.4571 43.7422H13.0332V44.0654H13.5748V45.4369H13.9592V44.0654H14.5008V43.8208L15.1297 44.9914L15.1122 45.0088C15.0773 45.0612 15.0424 45.0962 15.0074 45.1224C14.9725 45.1486 14.9288 45.1573 14.8764 45.1573C14.8327 45.1573 14.7716 45.1486 14.7104 45.1224L14.6143 45.4194C14.7104 45.4543 14.7978 45.4805 14.8939 45.4805C15.0074 45.4805 15.1122 45.4456 15.2083 45.3845C15.3044 45.3146 15.3918 45.2185 15.4617 45.0962L16.1867 43.7597H15.8023L15.3394 44.6681L14.8939 43.7597H14.5008H14.4571V43.7422Z" fill="#631FB9"/>
<path d="M16.9951 44.123V45.4238H17.3443L17.9816 44.6469V45.4238H18.3483V44.123H18.0078L17.3705 44.8913V44.123H16.9951Z" fill="#631FB9"/>
<path d="M20.2958 45.4238V44.123H19.9379L19.5014 44.8738L19.0823 44.123H18.6895V45.4238H19.0299V44.6381L19.4053 45.2929H19.5712L19.9553 44.6469V45.4238H20.2958Z" fill="#631FB9"/>
<path d="M20.9387 45.3772C20.9823 45.3336 21.0085 45.2725 21.0085 45.2114C21.0085 45.1415 20.9823 45.0891 20.9387 45.0455C20.895 45.0018 20.8339 44.9844 20.7728 44.9844C20.703 44.9844 20.6506 45.0018 20.607 45.0455C20.5633 45.0891 20.5371 45.1415 20.5371 45.2114C20.5371 45.2812 20.5633 45.3336 20.607 45.3772C20.6506 45.4209 20.7117 45.4471 20.7728 45.4471C20.8427 45.4471 20.895 45.4209 20.9387 45.3772Z" fill="#631FB9"/>
<path d="M22.3148 44.7374H23.083V45.4358H23.4759V43.7422H23.083V44.4057H22.3148V43.7422H21.9307V45.4358H22.3148V44.7374Z" fill="#631FB9"/>
<path d="M24.1506 45.3772C24.1943 45.3336 24.2204 45.2725 24.2204 45.2114C24.2204 45.1415 24.1943 45.0891 24.1506 45.0455C24.107 45.0018 24.0458 44.9844 23.9847 44.9844C23.9149 44.9844 23.8625 45.0018 23.8189 45.0455C23.7752 45.0891 23.749 45.1415 23.749 45.2114C23.749 45.2812 23.7752 45.3336 23.8189 45.3772C23.8625 45.4209 23.9236 45.4471 23.9847 45.4471C24.0458 45.4471 24.107 45.4209 24.1506 45.3772Z" fill="#631FB9"/>
<path d="M25.0061 45.1222C24.8315 45.1222 24.6918 45.0524 24.5696 44.9214L24.3164 45.1571C24.395 45.2532 24.4997 45.3318 24.6132 45.3841C24.7355 45.4365 24.8664 45.4627 25.0148 45.4627C25.1807 45.4627 25.3291 45.4278 25.4688 45.3492C25.5997 45.2706 25.7045 45.1659 25.7831 45.0349C25.8616 44.904 25.8966 44.7556 25.8966 44.581C25.8966 44.4151 25.8616 44.2667 25.7831 44.127C25.7045 43.996 25.5997 43.8913 25.4688 43.8127C25.3378 43.7341 25.1894 43.6992 25.0148 43.6992C24.8664 43.6992 24.7267 43.7254 24.6132 43.7778C24.491 43.8302 24.395 43.9 24.3164 44.0048L24.5696 44.2405C24.6918 44.1095 24.8315 44.0397 25.0061 44.0397C25.1283 44.0397 25.2331 44.0746 25.3116 44.1445C25.3989 44.2143 25.4513 44.3103 25.4775 44.4238H24.8053V44.7206H25.495C25.4688 44.8429 25.4164 44.9389 25.3291 45.0175C25.2331 45.0873 25.1283 45.1222 25.0061 45.1222Z" fill="#631FB9"/>
<path d="M26.4113 45.3772C26.455 45.3336 26.4812 45.2725 26.4812 45.2114C26.4812 45.1415 26.455 45.0891 26.4113 45.0455C26.3677 45.0018 26.3066 44.9844 26.2455 44.9844C26.1756 44.9844 26.1233 45.0018 26.0796 45.0455C26.036 45.0891 26.0098 45.1415 26.0098 45.2114C26.0098 45.2812 26.036 45.3336 26.0796 45.3772C26.1233 45.4209 26.1844 45.4471 26.2455 45.4471C26.3066 45.4471 26.359 45.4209 26.4113 45.3772Z" fill="#631FB9"/>
<path d="M28.7613 44.0565V43.7422H27.3994V45.4358H28.2026C28.4208 45.4358 28.5867 45.3922 28.7089 45.2961C28.8312 45.2001 28.8835 45.0692 28.8835 44.9033C28.8835 44.7462 28.8312 44.6152 28.7264 44.5366C28.6216 44.4493 28.4645 44.4057 28.255 44.4057H27.7835V44.0565H28.7613ZM28.1764 44.6938C28.3859 44.6938 28.4819 44.7636 28.4819 44.912C28.4819 44.9906 28.4558 45.043 28.4034 45.0866C28.351 45.1303 28.2724 45.1477 28.1764 45.1477H27.7835V44.6938H28.1764Z" fill="#631FB9"/>
<path d="M29.166 44.771C29.0787 44.8408 29.0264 44.9368 29.0264 45.0591C29.0264 45.1376 29.0438 45.1987 29.0875 45.2599C29.1224 45.321 29.1835 45.3646 29.2534 45.3995C29.3232 45.4345 29.4105 45.4519 29.5153 45.4519C29.7073 45.4519 29.8383 45.3908 29.9081 45.2686V45.4345H30.2573V44.6924C30.2573 44.5003 30.2049 44.3519 30.0914 44.2559C29.9867 44.1599 29.8295 44.1162 29.6287 44.1162C29.524 44.1162 29.4192 44.1337 29.3232 44.1599C29.2272 44.1861 29.1399 44.2297 29.07 44.2734L29.2097 44.5353C29.2533 44.5003 29.3145 44.4654 29.3843 44.448C29.4541 44.4305 29.5153 44.413 29.5851 44.413C29.6811 44.413 29.7597 44.4392 29.8121 44.4829C29.8645 44.5265 29.8906 44.5876 29.8906 44.6749H29.5938C29.393 44.6662 29.2533 44.7011 29.166 44.771ZM29.8819 44.8845V45.0154C29.8645 45.0765 29.8295 45.1202 29.7772 45.1464C29.7248 45.1726 29.6724 45.19 29.6026 45.19C29.5327 45.19 29.4803 45.1726 29.4454 45.1464C29.4105 45.1202 29.3843 45.0765 29.3843 45.0329C29.3843 44.9281 29.4629 44.8845 29.62 44.8845H29.8819Z" fill="#631FB9"/>
<path d="M30.8453 45.5772C30.8104 45.6034 30.7755 45.6121 30.7231 45.6121C30.6882 45.6121 30.6445 45.6034 30.6096 45.5946C30.5747 45.5772 30.5398 45.5597 30.5049 45.5335L30.3652 45.8042C30.4088 45.8391 30.4612 45.874 30.531 45.8915C30.6009 45.9089 30.662 45.9264 30.7318 45.9264C30.8541 45.9264 30.9588 45.8915 31.0461 45.8304C31.1334 45.7693 31.2033 45.6645 31.2644 45.5161L31.8493 44.1367H31.4826L31.116 45.0185L30.7493 44.1367H30.3564L30.9239 45.4462L30.9152 45.455C30.9064 45.5073 30.8803 45.551 30.8453 45.5772Z" fill="#631FB9"/>
<path d="M33.266 44.123L32.8295 44.8738L32.4104 44.123H32.0176V45.4238H32.3581V44.6381L32.7422 45.2929H32.8993L33.2834 44.6469V45.4238H33.6239V44.123H33.266Z" fill="#631FB9"/>
<path d="M34.4784 44.1162C34.3737 44.1162 34.2689 44.1337 34.1729 44.1599C34.0768 44.1861 33.9895 44.2297 33.9197 44.2734L34.0594 44.5353C34.103 44.5003 34.1641 44.4654 34.234 44.448C34.3038 44.4305 34.3649 44.413 34.4348 44.413C34.5308 44.413 34.6094 44.4392 34.6617 44.4829C34.7141 44.5265 34.7403 44.5876 34.7403 44.6749H34.4435C34.2514 44.6749 34.1117 44.7099 34.0244 44.7797C33.9371 44.8495 33.8848 44.9456 33.8848 45.0678C33.8848 45.1464 33.9022 45.2075 33.9459 45.2686C33.9808 45.3297 34.0419 45.3733 34.1117 45.4083C34.1816 45.4432 34.2689 45.4606 34.3736 45.4606C34.5657 45.4606 34.6967 45.3995 34.7665 45.2773V45.4432H35.1157V44.7011C35.1157 44.5091 35.0633 44.3607 34.9498 44.2646C34.8276 44.1599 34.6792 44.1162 34.4784 44.1162ZM34.7229 45.0241C34.7054 45.0853 34.6705 45.1289 34.6181 45.1551C34.5657 45.1813 34.5133 45.1987 34.4435 45.1987C34.3737 45.1987 34.3213 45.1813 34.2863 45.1551C34.2514 45.1289 34.2252 45.0853 34.2252 45.0416C34.2252 44.9368 34.3038 44.8932 34.461 44.8932H34.7229V45.0241Z" fill="#631FB9"/>
<path d="M36.3413 44.6294H35.7738V44.123H35.3984V45.4238H35.7738V44.9349H36.3413V45.4238H36.7167V44.123H36.3413V44.6294Z" fill="#631FB9"/>
<path d="M37.5585 44.1162C37.4537 44.1162 37.349 44.1337 37.2529 44.1599C37.1569 44.1861 37.0696 44.2297 36.9998 44.2734L37.1394 44.5353C37.1831 44.5003 37.2442 44.4654 37.314 44.448C37.3839 44.4305 37.445 44.413 37.5148 44.413C37.6109 44.413 37.6894 44.4392 37.7418 44.4829C37.7942 44.5265 37.8204 44.5876 37.8204 44.6749H37.5236C37.3315 44.6749 37.1918 44.7099 37.1045 44.7797C37.0172 44.8495 36.9648 44.9456 36.9648 45.0678C36.9648 45.1464 36.9823 45.2075 37.026 45.2686C37.0609 45.3297 37.122 45.3733 37.1918 45.4083C37.2617 45.4432 37.349 45.4606 37.4537 45.4606C37.6458 45.4606 37.7767 45.3995 37.8466 45.2773V45.4432H38.1958V44.7011C38.1958 44.5091 38.1434 44.3607 38.0299 44.2646C37.9164 44.1599 37.7593 44.1162 37.5585 44.1162ZM37.8029 45.0241C37.7855 45.0853 37.7506 45.1289 37.6982 45.1551C37.6458 45.1813 37.5934 45.1987 37.5236 45.1987C37.4537 45.1987 37.4013 45.1813 37.3664 45.1551C37.3315 45.1289 37.3053 45.0853 37.3053 45.0416C37.3053 44.9368 37.3839 44.8932 37.541 44.8932H37.8029V45.0241Z" fill="#631FB9"/>
<path d="M36.1945 13.7822L30.9015 22.9531L25.5999 13.7734H9.05735C4.0614 13.7734 0 17.8348 0 22.8308C0 27.8267 4.0614 31.8881 9.05735 31.8881C10.9701 31.8881 12.813 31.2855 14.3328 30.185L13.2061 28.2372C12.027 29.1456 10.5684 29.6434 9.04861 29.6434C5.28418 29.6434 2.22722 26.5865 2.22722 22.822C2.22722 19.0576 5.28418 16.0007 9.04861 16.0007H19.2589V31.8794H21.4948V16.0094H24.2985L29.6001 25.189L26.7004 30.2112L27.6699 31.8881H46.6405L47.61 30.2112L38.1334 13.7822H36.1945ZM29.6089 29.6522L37.1552 16.5771L44.7015 29.6522H29.6089Z" fill="#631FB9"/>
<path d="M18.3209 40.964C20.1551 40.964 21.6487 39.4705 21.6487 37.6363C21.6487 35.8021 20.1551 34.3086 18.3209 34.3086C16.4868 34.3086 15.002 35.8109 15.002 37.6451C15.002 39.4792 16.4868 40.964 18.3209 40.964ZM18.3209 35.6799C19.404 35.6799 20.2774 36.562 20.2774 37.6451C20.2774 38.7281 19.3952 39.6015 18.3209 39.6015C17.2379 39.6015 16.3558 38.7194 16.3558 37.6451C16.3645 36.562 17.2379 35.6799 18.3209 35.6799Z" fill="#631FB9"/>
<path d="M12.2506 40.9621C13.2375 40.9621 14.1634 40.5342 14.7922 39.7743L13.7529 38.9009C13.3773 39.3463 12.827 39.5996 12.2506 39.5996C11.1675 39.5996 10.2941 38.7175 10.2941 37.6432C10.2941 36.5601 11.1763 35.678 12.2506 35.678C12.827 35.678 13.3773 35.9313 13.7529 36.3767L14.7922 35.5033C14.1546 34.7521 13.2288 34.3154 12.2506 34.3154C10.4164 34.3154 8.92285 35.809 8.92285 37.6432C8.92285 39.4773 10.4164 40.9621 12.2506 40.9621Z" fill="#631FB9"/>
<path d="M36.269 39.5996V40.9621H37.649V35.678H39.1513V34.3154H34.7842V35.678H36.2777L36.269 39.5996Z" fill="#631FB9"/>
<path d="M27.4077 38.7873C27.4077 38.1847 27.1631 37.6344 26.7526 37.2326C26.9622 36.927 27.0845 36.5688 27.0845 36.1758C27.0845 35.1539 26.2548 34.3154 25.2241 34.3154H22.3506V40.9621H25.2241C26.4294 40.9621 27.4077 39.9839 27.4077 38.7873ZM23.7131 35.678H25.2241C25.4949 35.678 25.722 35.8963 25.722 36.1671C25.722 36.3942 25.5648 36.5863 25.3464 36.6475L23.7131 37.0667V35.678ZM23.7131 38.4729L25.5124 38.0187C25.8268 38.1323 26.0451 38.438 26.0451 38.7873C26.0451 39.2415 25.6783 39.6083 25.2241 39.6083H23.7131V38.4729Z" fill="#631FB9"/>
<path d="M31.3571 40.9729C32.5973 40.9729 33.6804 40.2917 34.2481 39.2872L33.0602 38.6147C32.7196 39.2086 32.0907 39.6104 31.3571 39.6104C30.7457 39.6104 30.1954 39.3309 29.8373 38.8942L34.6761 37.5579C34.6237 35.7674 33.1563 34.335 31.3571 34.335C30.1168 34.335 29.0338 35.0162 28.4661 36.0207C28.1953 36.501 28.0381 37.06 28.0381 37.6539C28.0381 39.4881 29.5229 40.9729 31.3571 40.9729ZM29.6539 36.6845C29.9945 36.0905 30.6234 35.6888 31.3571 35.6888C32.0558 35.6888 32.6585 36.0556 33.0078 36.5971L29.4006 37.5928C29.4094 37.2696 29.5054 36.9552 29.6539 36.6845Z" fill="#631FB9"/>
</svg>
