<svg width="67" height="67" viewBox="0 0 67 67" fill="none" xmlns="http://www.w3.org/2000/svg">
<path d="M33.5 0C15.008 0 0 15.008 0 33.5C0 51.992 15.008 67 33.5 67C51.992 67 67 51.992 67 33.5C67 15.008 51.992 0 33.5 0ZM49.044 22.78C48.5415 28.073 46.364 40.937 45.2585 46.8665C44.7895 49.379 43.8515 50.2165 42.9805 50.317C41.0375 50.4845 39.5635 49.044 37.6875 47.8045C34.7395 45.8615 33.0645 44.6555 30.217 42.7795C26.9005 40.602 29.0445 39.396 30.954 37.453C31.4565 36.9505 40.0325 29.145 40.2 28.4415C40.2233 28.3349 40.2202 28.2243 40.191 28.1192C40.1618 28.0142 40.1074 27.9178 40.0325 27.8385C39.8315 27.671 39.5635 27.738 39.329 27.7715C39.0275 27.8385 34.3375 30.954 25.192 37.118C23.852 38.0225 22.646 38.4915 21.574 38.458C20.368 38.4245 18.09 37.788 16.3815 37.2185C14.271 36.5485 12.6295 36.18 12.7635 35.0075C12.8305 34.4045 13.668 33.8015 15.2425 33.165C25.0245 28.9105 31.5235 26.0965 34.773 24.7565C44.086 20.8705 45.9955 20.2005 47.2685 20.2005C47.5365 20.2005 48.173 20.2675 48.575 20.6025C48.91 20.8705 49.0105 21.239 49.044 21.507C49.0105 21.708 49.0775 22.311 49.044 22.78Z" fill="#631FB9"/>
</svg>
