<svg width="183" height="182" viewBox="0 0 183 182" fill="none" xmlns="http://www.w3.org/2000/svg">
<circle cx="91.5" cy="90.9658" r="74.5" fill="#631FB9"/>
<path d="M143.672 79.5354C143.286 79.1131 142.977 78.6688 142.744 78.2026C142.507 77.7211 142.312 77.211 142.163 76.6878C141.953 75.9491 141.883 75.237 141.97 74.547C142.041 73.8613 142.241 73.222 142.581 72.6597C142.9 72.0864 143.342 71.5946 143.887 71.1731C144.433 70.7517 145.064 70.4557 145.803 70.2454C146.572 70.0264 147.3 69.9524 148.001 70.0191C148.686 70.0901 149.33 70.3061 149.908 70.6408C150.485 70.9754 150.997 71.4287 151.427 72.0049C151.857 72.5812 152.182 73.254 152.41 74.0543C152.541 74.5159 152.622 74.9753 152.668 75.4281C152.698 75.8853 152.691 76.3864 152.638 76.9006L151.237 77.2992C151.284 76.8201 151.289 76.3696 151.228 75.9212C151.167 75.4728 151.086 75.0134 150.963 74.5825C150.805 74.0285 150.568 73.5469 150.283 73.129C149.983 72.7156 149.642 72.3965 149.242 72.161C148.843 71.9254 148.388 71.7887 147.893 71.7464C147.379 71.6932 146.849 71.7607 146.28 71.9228C145.695 72.0892 145.203 72.3459 144.813 72.673C144.42 72.9846 144.125 73.3514 143.909 73.7621C143.689 74.1575 143.579 74.5882 143.547 75.0628C143.516 75.5375 143.566 76.0057 143.706 76.4981C143.838 76.9598 144.039 77.4347 144.307 77.9075C144.57 78.3649 144.851 78.7674 145.15 79.115L143.672 79.5354Z" fill="white"/>
<path d="M145.378 87.2839C145.406 87.7951 145.512 88.2538 145.729 88.6904C145.929 89.1118 146.206 89.4809 146.56 89.7815C146.897 90.0831 147.31 90.3003 147.784 90.466C148.257 90.6157 148.774 90.6828 149.349 90.6505C149.908 90.6191 150.414 90.4946 150.883 90.2919C151.336 90.0742 151.721 89.8122 152.039 89.4738C152.341 89.1364 152.575 88.7387 152.742 88.2966C152.893 87.8394 152.963 87.3708 152.934 86.8596C152.905 86.3484 152.782 85.8745 152.582 85.453C152.366 85.0165 152.089 84.6634 151.752 84.3619C151.399 84.0612 150.985 83.8281 150.512 83.6784C150.038 83.5127 149.522 83.4615 148.963 83.4929C148.388 83.5252 147.881 83.6338 147.429 83.8515C146.959 84.0541 146.574 84.3321 146.273 84.6696C145.955 85.0079 145.72 85.3897 145.569 85.8469C145.402 86.2889 145.349 86.7727 145.378 87.2839ZM143.876 87.3682C143.831 86.5694 143.919 85.8434 144.138 85.1901C144.358 84.5367 144.678 83.9579 145.115 83.4686C145.553 82.9793 146.092 82.5964 146.733 82.3041C147.357 82.0126 148.068 81.8284 148.867 81.7836C149.65 81.7396 150.377 81.843 151.03 82.0628C151.683 82.2825 152.262 82.6025 152.751 83.0398C153.241 83.477 153.639 84.0155 153.931 84.6402C154.222 85.2648 154.391 85.9765 154.435 86.7752C154.479 87.542 154.391 88.2681 154.172 88.9374C153.953 89.5907 153.617 90.1705 153.179 90.6598C152.742 91.1491 152.204 91.5479 151.579 91.8394C150.938 92.1317 150.227 92.2999 149.445 92.3598C148.645 92.3887 147.919 92.3013 147.266 92.0816C146.612 91.8618 146.033 91.5258 145.543 91.0886C145.054 90.6513 144.671 90.1119 144.38 89.4873C144.087 88.8467 143.919 88.135 143.876 87.3682Z" fill="white"/>
<path d="M153.811 100.107C153.724 100.66 153.581 101.156 153.396 101.613C153.197 102.051 152.977 102.421 152.703 102.719C152.43 103.016 152.106 103.224 151.76 103.364C151.414 103.503 151.035 103.541 150.624 103.476C150.403 103.441 150.171 103.372 149.944 103.272C149.717 103.171 149.513 103.026 149.314 102.849C149.115 102.672 148.939 102.45 148.787 102.183C148.637 101.9 148.508 101.588 148.437 101.22C148.169 101.891 147.789 102.349 147.307 102.63C146.81 102.908 146.277 103.002 145.676 102.908C145.25 102.84 144.87 102.683 144.552 102.439C144.218 102.192 143.947 101.858 143.749 101.47C143.537 101.064 143.399 100.605 143.336 100.077C143.258 99.5463 143.284 98.9674 143.384 98.3352C143.498 97.6082 143.664 96.9701 143.875 96.4526C144.086 95.9352 144.358 95.4435 144.685 95.0092L146.187 95.2457C145.818 95.7382 145.527 96.2432 145.316 96.7607C145.105 97.2782 144.945 97.8846 144.835 98.58C144.786 98.8961 144.768 99.2172 144.802 99.5142C144.82 99.8086 144.893 100.063 145.001 100.307C145.092 100.548 145.239 100.749 145.424 100.908C145.594 101.064 145.821 101.165 146.09 101.207C147.102 101.367 147.732 100.656 147.978 99.0912L148.265 97.2736L149.592 97.4827L149.348 99.0316C149.219 99.8535 149.248 100.49 149.455 100.927C149.645 101.362 150.008 101.63 150.514 101.71C150.798 101.754 151.045 101.729 151.252 101.648C151.462 101.551 151.645 101.418 151.804 101.232C151.965 101.031 152.081 100.806 152.189 100.532C152.282 100.255 152.363 99.9438 152.413 99.6277C152.455 99.359 152.482 99.0878 152.495 98.7984C152.508 98.5089 152.505 98.2169 152.484 97.9383C152.464 97.6596 152.44 97.3968 152.414 97.1498C152.388 96.9027 152.358 96.6873 152.324 96.4877L153.731 96.7092C153.856 97.15 153.939 97.6491 153.944 98.233C153.95 98.8169 153.916 99.4433 153.811 100.107Z" fill="white"/>
<path d="M144.111 104.969L143.746 105.926C144.145 106.318 144.554 106.68 144.964 107.042C145.38 107.388 145.831 107.732 146.354 108.068C146.876 108.404 147.455 108.728 148.105 109.044C148.74 109.355 149.485 109.691 150.352 110.022L151.264 110.37L148.834 116.738L140.792 113.669L140.353 114.821L137.183 113.611L137.702 112.251L139.466 112.924L142.187 105.793L140.423 105.12L140.942 103.76L144.111 104.969ZM148.018 110.707C146.972 110.308 146.061 109.823 145.294 109.274C144.519 108.704 143.799 108.121 143.147 107.496L141.362 112.175L148.044 114.724L149.379 111.226L148.018 110.707Z" fill="white"/>
<path d="M138.141 115.899L143.924 125.499L143.66 125.9L132.487 124.475L133.482 122.966L135.743 123.287L138.367 119.306L137.154 117.395L138.141 115.899ZM141.414 124.132L139.172 120.584L137.244 123.51L141.414 124.132Z" fill="white"/>
<path d="M138.117 136.189C137.888 135.965 137.795 135.74 137.804 135.525C137.813 135.287 137.902 135.105 138.058 134.945C138.237 134.762 138.429 134.658 138.666 134.644C138.892 134.619 139.108 134.718 139.337 134.942C139.565 135.166 139.681 135.391 139.672 135.629C139.664 135.866 139.575 136.071 139.396 136.254C139.24 136.414 139.048 136.495 138.811 136.509C138.584 136.512 138.346 136.413 138.117 136.189ZM135.431 138.933C135.202 138.709 135.11 138.484 135.119 138.269C135.127 138.031 135.227 137.838 135.384 137.678C135.54 137.518 135.732 137.414 135.969 137.4C136.195 137.375 136.411 137.474 136.64 137.698C136.869 137.922 136.984 138.147 136.975 138.385C136.967 138.622 136.878 138.827 136.722 138.987C136.565 139.147 136.362 139.24 136.125 139.254C135.899 139.256 135.66 139.157 135.431 138.933ZM138.387 132.916L133.273 138.142L132.232 137.124L136.216 133.053L134.238 131.117L130.724 134.707L129.683 133.689L133.197 130.098L131.07 128.017L127.086 132.088L126.046 131.069L131.16 125.843L138.387 132.916Z" fill="white"/>
<path d="M119.269 136.246L125.622 139.576L123.06 133.616L124.516 132.714L128.33 142.246L127.922 142.499L120.76 138.654L121.039 146.762L120.631 147.014L113.729 139.395L115.184 138.493L119.528 143.35L119.269 136.246Z" fill="white"/>
<path d="M106.676 148.028L101.668 149.166C101.889 149.706 102.155 150.155 102.458 150.479C102.778 150.801 103.126 151.033 103.503 151.177C103.896 151.318 104.302 151.373 104.729 151.374C105.168 151.357 105.616 151.304 106.068 151.201C106.536 151.095 106.947 150.952 107.323 150.801C107.711 150.631 108.06 150.437 108.372 150.218L108.691 151.623C108.293 151.893 107.9 152.114 107.481 152.291C107.058 152.453 106.632 152.599 106.195 152.698C105.321 152.897 104.525 152.93 103.81 152.814C103.094 152.698 102.482 152.46 101.958 152.103C101.434 151.746 101.001 151.287 100.664 150.74C100.326 150.193 100.071 149.578 99.9224 148.923C99.738 148.112 99.6805 147.353 99.7188 146.656C99.7727 145.954 99.9414 145.325 100.241 144.765C100.54 144.205 100.97 143.713 101.537 143.322C102.101 142.915 102.79 142.627 103.633 142.435C104.257 142.293 104.81 142.2 105.268 142.195C105.723 142.173 106.169 142.187 106.594 142.254L106.91 143.643C106.504 143.587 106.073 143.57 105.638 143.604C105.202 143.637 104.727 143.712 104.228 143.826C103.073 144.088 102.275 144.549 101.834 145.207C101.393 145.865 101.248 146.669 101.374 147.658L106.336 146.53L106.676 148.028Z" fill="white"/>
<path d="M89.2658 144.611L92.7491 150.881L93.8785 144.493L95.5899 144.538L93.547 154.6L93.0672 154.587L89.1909 147.442L84.974 154.373L84.4942 154.36L82.9064 144.202L84.6178 144.248L85.5836 150.692L89.2658 144.611Z" fill="white"/>
<path d="M74.2508 143.185C73.7615 143.034 73.2945 142.974 72.8098 143.025C72.3451 143.066 71.9028 143.198 71.498 143.425C71.0979 143.636 70.7508 143.948 70.4306 144.335C70.1258 144.726 69.8832 145.187 69.7135 145.738C69.5486 146.273 69.4895 146.791 69.5163 147.301C69.5632 147.801 69.6747 148.254 69.8815 148.669C70.0931 149.069 70.3846 149.427 70.7409 149.738C71.1172 150.038 71.5323 150.266 72.0216 150.417C72.5109 150.568 72.9979 150.618 73.4626 150.577C73.9473 150.525 74.3743 150.389 74.7744 150.177C75.1792 149.951 75.5416 149.644 75.8465 149.252C76.1666 148.865 76.3939 148.4 76.5588 147.864C76.7285 147.314 76.8029 146.801 76.756 146.301C76.7292 145.791 76.6024 145.333 76.3909 144.933C76.184 144.518 75.9077 144.164 75.5315 143.864C75.1752 143.554 74.74 143.336 74.2508 143.185ZM74.6938 141.748C75.4583 141.983 76.1086 142.318 76.6448 142.751C77.181 143.184 77.6125 143.685 77.9192 144.265C78.226 144.846 78.3974 145.484 78.4489 146.187C78.505 146.874 78.4305 147.604 78.1949 148.369C77.964 149.118 77.6143 149.764 77.1811 150.3C76.748 150.836 76.2466 151.267 75.6666 151.574C75.0865 151.881 74.4429 152.068 73.7559 152.124C73.0689 152.18 72.3431 152.09 71.5786 151.854C70.8447 151.628 70.1943 151.294 69.6429 150.856C69.1066 150.423 68.6799 149.906 68.3731 149.326C68.0664 148.746 67.8797 148.103 67.8235 147.416C67.7721 146.713 67.8619 145.987 68.0775 145.234C68.3284 144.474 68.6628 143.823 69.096 143.287C69.5291 142.751 70.0457 142.324 70.6258 142.017C71.2059 141.711 71.8447 141.539 72.5318 141.483C73.2341 141.432 73.9598 141.521 74.6938 141.748Z" fill="white"/>
<path d="M66.9181 139.241L61.7593 147.939L60.3694 147.114L64.761 139.711L60.3023 137.066L55.9108 144.469L54.5209 143.645L58.9125 136.241L57.6602 135.499L59.3907 132.581L60.6842 133.349L59.721 134.972L66.9181 139.241Z" fill="white"/>
<path d="M42.5025 133.206L49.6019 126.005L50.7527 127.14L45.8437 132.119L55.4924 131.813L55.9367 132.251L48.8373 139.451L47.6865 138.317L52.5842 133.349L42.9468 133.644L42.5025 133.206Z" fill="white"/>
<path d="M33.714 120.583L42.3312 115.292L43.1768 116.669L37.2184 120.328L46.6596 122.341L46.9862 122.873L38.3691 128.164L37.5235 126.787L43.4682 123.137L34.0406 121.115L33.714 120.583Z" fill="white"/>
<path d="M38.1423 101.978C38.5259 102.403 38.8323 102.849 39.0617 103.317C39.2954 103.8 39.4871 104.311 39.6325 104.836C39.8378 105.576 39.9027 106.288 39.8117 106.978C39.7361 107.663 39.5312 108.301 39.1885 108.861C38.8654 109.432 38.4199 109.921 37.8716 110.339C37.3233 110.756 36.6903 111.048 35.9503 111.254C35.1794 111.467 34.4514 111.537 33.7508 111.465C33.0657 111.39 32.4234 111.169 31.848 110.831C31.2725 110.492 30.7639 110.036 30.3376 109.457C29.9113 108.878 29.5912 108.203 29.3687 107.401C29.2404 106.938 29.1626 106.478 29.1199 106.025C29.0927 105.568 29.1031 105.067 29.1598 104.553L30.5628 104.164C30.513 104.643 30.5051 105.093 30.5632 105.542C30.6213 105.991 30.6991 106.451 30.8189 106.882C30.9729 107.437 31.2065 107.92 31.489 108.34C31.787 108.756 32.1252 109.077 32.5233 109.315C32.9215 109.553 33.3754 109.693 33.8696 109.739C34.3834 109.795 34.9136 109.731 35.484 109.573C36.0699 109.41 36.5642 109.157 36.9557 108.833C37.3514 108.524 37.6488 108.159 37.8673 107.75C38.0901 107.356 38.2033 106.926 38.2377 106.451C38.2721 105.977 38.2251 105.508 38.0882 105.015C37.9599 104.552 37.7614 104.076 37.4969 103.602C37.2367 103.142 36.9584 102.738 36.6622 102.389L38.1423 101.978Z" fill="white"/>
<path d="M36.4882 94.2195C36.4629 93.7081 36.36 93.2486 36.1461 92.8107C35.949 92.3879 35.6743 92.017 35.3229 91.714C34.9875 91.4102 34.5761 91.1903 34.1032 91.0214C33.6311 90.8686 33.115 90.798 32.5397 90.8265C31.9803 90.8542 31.4737 90.9753 31.003 91.1749C30.5491 91.3896 30.1614 91.649 29.8416 91.9852C29.5378 92.3207 29.3011 92.7169 29.1307 93.1578C28.9771 93.614 28.9041 94.0821 28.9294 94.5935C28.9547 95.1049 29.0743 95.5796 29.2715 96.0023C29.4854 96.4403 29.7593 96.7952 30.0947 97.099C30.4461 97.402 30.8582 97.6379 31.3304 97.7908C31.8033 97.9596 32.3186 98.0142 32.8779 97.9865C33.4532 97.958 33.9607 97.8528 34.4146 97.6381C34.8853 97.4386 35.2722 97.1632 35.576 96.8278C35.8957 96.4915 36.1332 96.1113 36.2869 95.6552C36.4573 95.2142 36.5135 94.7309 36.4882 94.2195ZM37.9903 94.1451C38.0299 94.9442 37.9376 95.6696 37.7136 96.3215C37.4895 96.9734 37.1656 97.5501 36.7251 98.0364C36.2846 98.5228 35.7427 98.902 35.1002 99.1902C34.4736 99.4775 33.7616 99.6569 32.9626 99.6964C32.1795 99.7352 31.4533 99.6269 30.8014 99.4029C30.1495 99.1788 29.5728 98.8549 29.0865 98.4144C28.6001 97.9739 28.2049 97.4328 27.9176 96.8062C27.6302 96.1797 27.4668 95.4669 27.4273 94.6679C27.3893 93.9008 27.4816 93.1753 27.7048 92.5075C27.9289 91.8556 28.2688 91.2781 28.7093 90.7918C29.1498 90.3054 29.6909 89.9102 30.3175 89.6228C30.96 89.3347 31.6728 89.1713 32.455 89.1166C33.2549 89.093 33.9803 89.1853 34.6322 89.4093C35.284 89.6334 35.8615 89.9733 36.3479 90.4138C36.8343 90.8543 37.2135 91.3962 37.5008 92.0227C37.789 92.6653 37.9524 93.3781 37.9903 94.1451Z" fill="white"/>
<path d="M28.1402 81.3411C28.231 80.7885 28.3772 80.2937 28.5655 79.8382C28.7671 79.4011 28.9898 79.0323 29.2653 78.7371C29.5408 78.4419 29.8665 78.236 30.2134 78.0984C30.5603 77.9608 30.939 77.9258 31.3495 77.9932C31.5706 78.0295 31.8022 78.1 32.0286 78.2021C32.2551 78.3042 32.458 78.451 32.6556 78.6294C32.8533 78.8078 33.0274 79.031 33.178 79.299C33.3259 79.5827 33.4529 79.8955 33.5221 80.2636C33.7942 79.5948 34.1772 79.1389 34.6605 78.8616C35.1597 78.5869 35.6934 78.4962 36.2934 78.5948C36.7197 78.6649 37.0988 78.8245 37.415 79.071C37.747 79.3201 38.0161 79.6562 38.2116 80.0451C38.4204 80.4523 38.5556 80.9123 38.6146 81.4409C38.6895 81.9721 38.6592 82.5508 38.5555 83.1823C38.4361 83.9086 38.2666 84.5455 38.0521 85.0616C37.8376 85.5776 37.5625 86.0675 37.232 86.4997L35.7322 86.2532C36.1046 85.7631 36.398 85.26 36.6125 84.744C36.827 84.2279 36.9914 83.6226 37.1055 82.9279C37.1574 82.6121 37.1777 82.2911 37.1455 81.994C37.129 81.6994 37.0574 81.4444 36.9517 81.2001C36.8617 80.9583 36.7166 80.7561 36.5321 80.596C36.3634 80.4386 36.1369 80.3365 35.8685 80.2924C34.8581 80.1264 34.2231 80.8328 33.9663 82.3958L33.6679 84.2114L32.3417 83.9935L32.596 82.4463C32.7309 81.6253 32.7057 80.9888 32.5022 80.55C32.3144 80.1137 31.9535 79.8436 31.4482 79.7606C31.1641 79.7139 30.9169 79.7381 30.7092 79.8175C30.499 79.9127 30.3152 80.0446 30.1552 80.2291C29.9925 80.4294 29.8747 80.6533 29.7648 80.9271C29.6708 81.2035 29.5873 81.5141 29.5354 81.8298C29.4913 82.0982 29.463 82.3692 29.4479 82.6586C29.4327 82.948 29.4334 83.2399 29.4524 83.5187C29.4715 83.7975 29.4931 84.0605 29.5174 84.3077C29.5416 84.5549 29.571 84.7705 29.6031 84.9704L28.1979 84.7395C28.0759 84.2978 27.9958 83.7982 27.9945 83.2143C27.9932 82.6303 28.0312 82.0042 28.1402 81.3411Z" fill="white"/>
<path d="M37.8724 76.5426L38.2438 75.5884C37.8479 75.1939 37.4404 74.8293 37.0329 74.4647C36.6196 74.115 36.1706 73.7686 35.6504 73.4288C35.1302 73.089 34.5537 72.7616 33.906 72.4409C33.2731 72.1259 32.5301 71.7853 31.6652 71.4487L30.7557 71.0947L33.2276 64.7428L41.2496 67.8646L41.6964 66.7165L44.8574 67.9466L44.3294 69.3035L42.5699 68.6188L39.8021 75.7312L41.5615 76.4159L41.0335 77.7728L37.8724 76.5426ZM34.0033 70.779C35.047 71.1852 35.9549 71.6759 36.7178 72.2303C37.4897 72.8054 38.2054 73.393 38.8531 74.0227L40.6693 69.3557L34.0042 66.7619L32.6464 70.251L34.0033 70.779Z" fill="white"/>
<path d="M43.9157 65.653L38.1967 56.0149L38.4635 55.6159L49.6263 57.1146L48.6212 58.6175L46.3629 58.2813L43.7122 62.2446L44.912 64.1634L43.9157 65.653ZM40.6974 57.3987L42.9154 60.9609L44.8634 58.0483L40.6974 57.3987Z" fill="white"/>
<path d="M44.0745 45.3634C44.3017 45.5887 44.3931 45.8146 44.3827 46.0296C44.3724 46.2672 44.2826 46.4486 44.1249 46.6077C43.9446 46.7894 43.7527 46.8921 43.5152 46.9044C43.289 46.9279 43.0736 46.827 42.8464 46.6017C42.6192 46.3763 42.5051 46.1505 42.5154 45.9129C42.5258 45.6753 42.6154 45.4712 42.7957 45.2895C42.9534 45.1304 43.1454 45.0504 43.383 45.0381C43.6092 45.0372 43.8472 45.138 44.0745 45.3634ZM46.7784 42.6368C47.0057 42.8621 47.0971 43.088 47.0867 43.303C47.0764 43.5407 46.9753 43.7334 46.8176 43.8925C46.6599 44.0515 46.468 44.1541 46.2304 44.1664C46.0042 44.19 45.7889 44.0891 45.5616 43.8637C45.3344 43.6384 45.2204 43.4126 45.2307 43.175C45.241 42.9374 45.3307 42.7333 45.4884 42.5743C45.6461 42.4152 45.8494 42.3239 46.0869 42.3116C46.3132 42.3106 46.5512 42.4115 46.7784 42.6368ZM43.7826 48.6343L48.9314 43.4424L49.9652 44.4677L45.9543 48.5121L47.9197 50.4612L51.4574 46.894L52.4912 47.9192L48.9535 51.4865L51.0666 53.5821L55.0775 49.5377L56.1113 50.5629L50.9625 55.7547L43.7826 48.6343Z" fill="white"/>
<path d="M62.9219 45.4324L56.591 42.0604L59.1134 48.0374L57.6519 48.9291L53.9011 39.372L54.3108 39.122L61.4469 43.0149L61.2219 34.9051L61.6316 34.6551L68.4829 42.3204L67.0215 43.2121L62.7099 38.3269L62.9219 45.4324Z" fill="white"/>
<path d="M75.5937 33.7348L80.6094 32.6298C80.3917 32.0879 80.1287 31.638 79.8274 31.3112C79.5104 30.9878 79.1637 30.7529 78.7874 30.6064C78.3954 30.4634 77.9895 30.4054 77.5625 30.4011C77.1234 30.4159 76.6756 30.4655 76.2225 30.5653C75.7537 30.6686 75.3422 30.8084 74.9653 30.9569C74.5763 31.1246 74.2253 31.3166 73.9126 31.5329L73.6028 30.1267C74.0024 29.8584 74.3967 29.6404 74.817 29.4659C75.2408 29.307 75.668 29.1638 76.1055 29.0674C76.9805 28.8746 77.7771 28.8466 78.4919 28.9676C79.2067 29.0887 79.8171 29.331 80.3388 29.6912C80.8605 30.0514 81.2901 30.5138 81.624 31.0628C81.958 31.6118 82.2085 32.2283 82.3531 32.8846C82.5321 33.6971 82.5845 34.4556 82.5416 35.1532C82.483 35.8542 82.31 36.4821 82.0071 37.0404C81.7041 37.5986 81.2711 38.0872 80.7011 38.4749C80.1346 38.8783 79.4434 39.1616 78.5996 39.3475C77.9746 39.4852 77.4209 39.5744 76.9627 39.5771C76.508 39.5953 76.062 39.5789 75.6369 39.5087L75.3306 38.1181C75.7366 38.1761 76.1669 38.1959 76.6026 38.1655C77.0382 38.1351 77.5139 38.063 78.0139 37.9529C79.1701 37.6981 79.971 37.2432 80.4165 36.588C80.862 35.9328 81.0127 35.1296 80.893 34.1401L75.9241 35.2348L75.5937 33.7348Z" fill="white"/>
<path d="M92.9801 37.2674L89.5385 30.974L88.3666 37.3547L86.6556 37.298L88.7654 27.2503L89.2451 27.2662L93.0738 34.4369L97.3367 27.5343L97.8164 27.5501L99.3366 37.7181L97.6256 37.6614L96.7026 31.2113L92.9801 37.2674Z" fill="white"/>
<path d="M107.986 38.7932C108.474 38.9472 108.941 39.0106 109.426 38.9623C109.891 38.9244 110.334 38.7958 110.74 38.5717C111.142 38.3628 111.491 38.0535 111.814 37.6688C112.121 37.2793 112.367 36.8199 112.54 36.2706C112.708 35.7365 112.771 35.2194 112.748 34.7087C112.704 34.2084 112.596 33.7547 112.392 33.338C112.183 32.9366 111.893 32.5769 111.539 32.2638C111.165 31.9611 110.751 31.73 110.263 31.5759C109.775 31.4219 109.288 31.369 108.823 31.4068C108.338 31.4551 107.91 31.5885 107.509 31.7974C107.103 32.0216 106.738 32.326 106.431 32.7155C106.108 33.1003 105.877 33.5645 105.709 34.0985C105.536 34.6478 105.458 35.1602 105.501 35.6604C105.525 36.1711 105.649 36.6296 105.857 37.0311C106.062 37.4478 106.335 37.8027 106.71 38.1053C107.064 38.4184 107.498 38.6391 107.986 38.7932ZM107.533 40.2275C106.77 39.9868 106.122 39.6481 105.589 39.2113C105.056 38.7746 104.628 38.2704 104.325 37.6883C104.022 37.1062 103.855 36.4663 103.808 35.7636C103.756 35.0763 103.836 34.3463 104.076 33.5834C104.312 32.8357 104.666 32.1924 105.103 31.6591C105.54 31.1258 106.044 30.6976 106.626 30.3948C107.208 30.0919 107.853 29.9094 108.54 29.8579C109.228 29.8063 109.953 29.9009 110.716 30.1416C111.448 30.3727 112.096 30.7114 112.645 31.1529C113.178 31.5896 113.601 32.1091 113.904 32.6912C114.207 33.2733 114.39 33.9181 114.441 34.6055C114.488 35.3081 114.393 36.0332 114.173 36.7857C113.917 37.5438 113.578 38.192 113.141 38.7253C112.705 39.2586 112.185 39.6819 111.603 39.9848C111.021 40.2877 110.381 40.4548 109.694 40.5064C108.991 40.5532 108.266 40.4586 107.533 40.2275Z" fill="white"/>
<path d="M115.292 42.7851L120.508 34.1225L121.892 34.9562L117.452 42.3303L121.893 45.0046L126.333 37.6305L127.718 38.4641L123.277 45.8383L124.524 46.5894L122.775 49.4952L121.486 48.7193L122.46 47.1019L115.292 42.7851Z" fill="white"/>
<path d="M139.666 48.9833L132.519 56.1367L131.376 54.9945L136.318 50.0483L126.668 50.29L126.226 49.849L133.373 42.6956L134.517 43.8378L129.586 48.7727L139.225 48.5423L139.666 48.9833Z" fill="white"/>
<path d="M148.371 61.6645L139.719 66.8984L138.882 65.5157L144.865 61.8967L135.437 59.8206L135.114 59.2867L143.766 54.0529L144.603 55.4356L138.634 59.0463L148.048 61.1306L148.371 61.6645Z" fill="white"/>
<path d="M91.5045 117.196C92.0368 117.175 92.652 116.954 93.0399 116.586L105.695 104.576C106.421 103.762 106.72 102.201 105.881 101.292C105.056 100.396 103.454 100.422 102.625 101.315L93.7378 109.76V68.4033C93.7378 67.1597 92.7379 66.1514 91.5045 66.1514C90.2711 66.1514 89.2712 67.1597 89.2712 68.4033V109.76L80.3845 101.315C79.6211 100.546 77.9629 100.404 77.1276 101.292C76.2923 102.179 76.5591 103.795 77.3137 104.576L89.9691 116.586C90.4022 116.997 90.9103 117.197 91.5045 117.196Z" fill="white"/>
</svg>
