<svg width="377" height="373" viewBox="0 0 377 373" fill="none" xmlns="http://www.w3.org/2000/svg">
<g filter="url(#filter0_d_450_2234)">
<path d="M227.776 240.192H147.283C146.107 240.192 145.141 241.159 145.141 242.335C145.141 243.511 146.107 244.477 147.283 244.477H227.776C228.952 244.477 229.918 243.511 229.918 242.335C229.918 241.159 228.952 240.192 227.776 240.192Z" fill="white"/>
<path d="M100.449 35.3489H127.714V47.3219L129.689 48.2882C153.299 60.1772 165.566 53.1194 166.07 52.8253L167.792 51.7751V35.2229H171.867V15.0998H203.249V35.2229H207.324V51.7751L209.047 52.8253C209.551 53.1194 221.818 60.2192 245.428 48.2882L247.403 47.3219V35.3489H274.668V85.1315L281.767 97.4406V28.2491H240.387L240.303 42.9108C226.481 49.4225 217.869 48.3302 214.466 47.364V28.1231H210.391V8H164.768V28.1231H160.693V47.364C157.206 48.3302 148.636 49.3805 134.814 42.9108V35.2229L134.94 28.2491H93.3496V69.1255C95.6182 68.0332 98.0128 67.0669 100.449 66.3108V35.3489Z" fill="white"/>
<path d="M274.639 218.669C274.639 241.649 255.944 260.302 233.007 260.302H215.068C204.944 260.302 195.533 264.587 187.551 269.082C179.527 264.587 170.159 260.302 160.034 260.302H142.096C119.116 260.302 100.463 241.607 100.463 218.669V169.349C98.0265 168.593 95.6319 167.626 93.3633 166.534V218.669C93.3633 245.556 115.251 267.444 142.138 267.444H160.076C169.276 267.444 178.267 271.939 185.829 276.308L187.593 277.358L189.358 276.308C196.919 271.939 205.91 267.444 215.11 267.444H233.049C259.935 267.444 281.823 245.556 281.823 218.669V171.786H274.639V218.669Z" fill="white"/>
<path d="M126.27 218.398L123.288 223.437L120.223 218.398H118.669V226.545H120.433V221.758L122.827 225.663H123.666L126.06 221.674L126.102 226.545H127.865V218.398H126.27Z" fill="white"/>
<path d="M129.75 226.545H131.598V219.952H135.461L135.503 218.398H129.75V226.545Z" fill="white"/>
<path d="M142.537 218.398H135.688V219.953H138.294V226.55H140.142V219.953H142.747V218.777L145.772 224.407L145.688 224.491C145.52 224.743 145.352 224.911 145.184 225.037C145.016 225.163 144.806 225.205 144.554 225.205C144.344 225.205 144.05 225.163 143.756 225.037L143.293 226.466C143.756 226.634 144.176 226.76 144.638 226.76C145.184 226.76 145.688 226.592 146.151 226.298C146.613 225.961 147.033 225.499 147.369 224.911L150.857 218.482H149.008L146.781 222.852L144.638 218.482H142.747H142.537V218.398Z" fill="white"/>
<path d="M154.747 220.229V226.485H156.426L159.492 222.748V226.485H161.255V220.229H159.618L156.552 223.924V220.229H154.747Z" fill="white"/>
<path d="M170.62 226.485V220.229H168.898L166.799 223.84L164.783 220.229H162.894V226.485H164.531V222.706L166.337 225.855H167.135L168.982 222.748V226.485H170.62Z" fill="white"/>
<path d="M173.715 226.261C173.925 226.051 174.051 225.757 174.051 225.463C174.051 225.127 173.925 224.875 173.715 224.665C173.505 224.455 173.211 224.371 172.917 224.371C172.582 224.371 172.33 224.455 172.12 224.665C171.91 224.875 171.784 225.127 171.784 225.463C171.784 225.799 171.91 226.051 172.12 226.261C172.33 226.471 172.624 226.597 172.917 226.597C173.253 226.597 173.505 226.471 173.715 226.261Z" fill="white"/>
<path d="M180.336 223.185H184.031V226.545H185.921V218.398H184.031V221.59H180.336V218.398H178.488V226.545H180.336V223.185Z" fill="white"/>
<path d="M189.161 226.261C189.371 226.051 189.497 225.757 189.497 225.463C189.497 225.127 189.371 224.875 189.161 224.665C188.951 224.455 188.657 224.371 188.363 224.371C188.027 224.371 187.775 224.455 187.565 224.665C187.355 224.875 187.229 225.127 187.229 225.463C187.229 225.799 187.355 226.051 187.565 226.261C187.775 226.471 188.069 226.597 188.363 226.597C188.657 226.597 188.951 226.471 189.161 226.261Z" fill="white"/>
<path d="M193.276 225.037C192.436 225.037 191.765 224.701 191.177 224.071L189.959 225.205C190.337 225.667 190.841 226.045 191.387 226.297C191.975 226.549 192.604 226.675 193.318 226.675C194.116 226.675 194.83 226.507 195.502 226.129C196.132 225.751 196.636 225.247 197.013 224.617C197.391 223.987 197.559 223.273 197.559 222.433C197.559 221.636 197.391 220.922 197.013 220.25C196.636 219.62 196.132 219.116 195.502 218.738C194.872 218.36 194.158 218.192 193.318 218.192C192.604 218.192 191.933 218.318 191.387 218.57C190.799 218.822 190.337 219.158 189.959 219.662L191.177 220.796C191.765 220.166 192.436 219.83 193.276 219.83C193.864 219.83 194.368 219.998 194.746 220.334C195.166 220.67 195.418 221.132 195.544 221.678H192.31V223.105H195.628C195.502 223.693 195.25 224.155 194.83 224.533C194.368 224.869 193.864 225.037 193.276 225.037Z" fill="white"/>
<path d="M200.038 226.261C200.247 226.051 200.373 225.757 200.373 225.463C200.373 225.127 200.247 224.875 200.038 224.665C199.828 224.455 199.534 224.371 199.24 224.371C198.904 224.371 198.652 224.455 198.442 224.665C198.232 224.875 198.106 225.127 198.106 225.463C198.106 225.799 198.232 226.051 198.442 226.261C198.652 226.471 198.946 226.597 199.24 226.597C199.534 226.597 199.786 226.471 200.038 226.261Z" fill="white"/>
<path d="M211.338 219.91V218.398H204.788V226.545H208.651C209.701 226.545 210.498 226.335 211.086 225.873C211.674 225.411 211.926 224.781 211.926 223.983C211.926 223.227 211.674 222.598 211.17 222.22C210.666 221.8 209.91 221.59 208.903 221.59H206.635V219.91H211.338ZM208.525 222.975C209.533 222.975 209.994 223.311 209.994 224.025C209.994 224.403 209.869 224.655 209.617 224.865C209.365 225.075 208.987 225.159 208.525 225.159H206.635V222.975H208.525Z" fill="white"/>
<path d="M213.285 223.346C212.865 223.682 212.613 224.143 212.613 224.731C212.613 225.109 212.697 225.403 212.907 225.697C213.075 225.991 213.369 226.201 213.705 226.369C214.041 226.537 214.461 226.621 214.965 226.621C215.889 226.621 216.518 226.327 216.854 225.739V226.537H218.534V222.968C218.534 222.044 218.282 221.33 217.736 220.868C217.232 220.406 216.476 220.196 215.511 220.196C215.007 220.196 214.503 220.28 214.041 220.406C213.579 220.532 213.159 220.742 212.823 220.952L213.495 222.212C213.705 222.044 213.999 221.876 214.335 221.792C214.671 221.708 214.965 221.624 215.301 221.624C215.763 221.624 216.141 221.75 216.392 221.96C216.644 222.17 216.77 222.464 216.77 222.884H215.343C214.377 222.842 213.705 223.01 213.285 223.346ZM216.728 223.892V224.521C216.644 224.815 216.476 225.025 216.225 225.151C215.973 225.277 215.721 225.361 215.385 225.361C215.049 225.361 214.797 225.277 214.629 225.151C214.461 225.025 214.335 224.815 214.335 224.605C214.335 224.101 214.713 223.892 215.469 223.892H216.728Z" fill="white"/>
<path d="M221.36 227.222C221.192 227.347 221.024 227.389 220.772 227.389C220.604 227.389 220.394 227.347 220.226 227.305C220.058 227.222 219.89 227.138 219.722 227.012L219.05 228.313C219.26 228.481 219.512 228.649 219.848 228.733C220.184 228.817 220.478 228.901 220.814 228.901C221.402 228.901 221.906 228.733 222.326 228.439C222.746 228.145 223.081 227.641 223.375 226.928L226.189 220.293H224.425L222.662 224.534L220.898 220.293H219.008L221.738 226.592L221.696 226.634C221.654 226.886 221.528 227.096 221.36 227.222Z" fill="white"/>
<path d="M233.006 220.229L230.907 223.84L228.891 220.229H227.001V226.485H228.639V222.706L230.487 225.855H231.243L233.09 222.748V226.485H234.728V220.229H233.006Z" fill="white"/>
<path d="M238.837 220.196C238.333 220.196 237.829 220.28 237.367 220.406C236.905 220.532 236.485 220.742 236.149 220.952L236.821 222.212C237.031 222.044 237.325 221.876 237.661 221.792C237.997 221.708 238.291 221.624 238.627 221.624C239.089 221.624 239.467 221.75 239.719 221.96C239.971 222.17 240.097 222.464 240.097 222.884H238.669C237.745 222.884 237.073 223.052 236.653 223.388C236.233 223.724 235.981 224.185 235.981 224.773C235.981 225.151 236.065 225.445 236.275 225.739C236.443 226.033 236.737 226.243 237.073 226.411C237.409 226.579 237.829 226.663 238.333 226.663C239.257 226.663 239.887 226.369 240.223 225.781V226.579H241.902V223.01C241.902 222.086 241.65 221.372 241.104 220.91C240.516 220.406 239.803 220.196 238.837 220.196ZM240.013 224.563C239.929 224.857 239.761 225.067 239.509 225.193C239.257 225.319 239.005 225.403 238.669 225.403C238.333 225.403 238.081 225.319 237.913 225.193C237.745 225.067 237.619 224.857 237.619 224.647C237.619 224.143 237.997 223.933 238.753 223.933H240.013V224.563Z" fill="white"/>
<path d="M247.799 222.664H245.069V220.229H243.264V226.485H245.069V224.134H247.799V226.485H249.604V220.229H247.799V222.664Z" fill="white"/>
<path d="M253.654 220.196C253.15 220.196 252.646 220.28 252.184 220.406C251.722 220.532 251.302 220.742 250.966 220.952L251.638 222.212C251.848 222.044 252.142 221.876 252.478 221.792C252.814 221.708 253.108 221.624 253.444 221.624C253.906 221.624 254.284 221.75 254.536 221.96C254.787 222.17 254.913 222.464 254.913 222.884H253.486C252.562 222.884 251.89 223.052 251.47 223.388C251.05 223.724 250.798 224.185 250.798 224.773C250.798 225.151 250.882 225.445 251.092 225.739C251.26 226.033 251.554 226.243 251.89 226.411C252.226 226.579 252.646 226.663 253.15 226.663C254.074 226.663 254.704 226.369 255.039 225.781V226.579H256.719V223.01C256.719 222.086 256.467 221.372 255.921 220.91C255.375 220.406 254.62 220.196 253.654 220.196ZM254.829 224.563C254.745 224.857 254.578 225.067 254.326 225.193C254.074 225.319 253.822 225.403 253.486 225.403C253.15 225.403 252.898 225.319 252.73 225.193C252.562 225.067 252.436 224.857 252.436 224.647C252.436 224.143 252.814 223.933 253.57 223.933H254.829V224.563Z" fill="white"/>
<path d="M247.092 74.292L221.634 118.403L196.133 74.25H116.565C92.5349 74.25 73 93.7849 73 117.815C73 141.845 92.5349 161.38 116.565 161.38C125.765 161.38 134.63 158.481 141.939 153.188L136.52 143.82C130.849 148.189 123.833 150.583 116.523 150.583C98.4164 150.583 83.7127 135.88 83.7127 117.773C83.7127 99.6664 98.4164 84.9627 116.523 84.9627H165.633V161.338H176.388V85.0047H189.874L215.374 129.158L201.427 153.314L206.09 161.38H297.337L302 153.314L256.418 74.292H247.092ZM215.416 150.625L251.713 87.7354L288.01 150.625H215.416Z" fill="white"/>
<path d="M161.121 205.033C169.943 205.033 177.127 197.849 177.127 189.027C177.127 180.204 169.943 173.021 161.121 173.021C152.299 173.021 145.157 180.246 145.157 189.069C145.157 197.891 152.299 205.033 161.121 205.033ZM161.121 179.616C166.33 179.616 170.531 183.859 170.531 189.069C170.531 194.278 166.288 198.479 161.121 198.479C155.911 198.479 151.668 194.236 151.668 189.069C151.71 183.859 155.911 179.616 161.121 179.616Z" fill="white"/>
<path d="M131.925 205.027C136.672 205.027 141.125 202.968 144.15 199.313L139.151 195.112C137.344 197.255 134.698 198.473 131.925 198.473C126.716 198.473 122.515 194.23 122.515 189.063C122.515 183.853 126.758 179.61 131.925 179.61C134.698 179.61 137.344 180.829 139.151 182.971L144.15 178.77C141.083 175.157 136.63 173.057 131.925 173.057C123.103 173.057 115.919 180.24 115.919 189.063C115.919 197.885 123.103 205.027 131.925 205.027Z" fill="white"/>
<path d="M247.451 198.473V205.027H254.089V179.61H261.315V173.057H240.31V179.61H247.493L247.451 198.473Z" fill="white"/>
<path d="M204.831 194.566C204.831 191.667 203.655 189.021 201.68 187.088C202.688 185.618 203.277 183.895 203.277 182.005C203.277 177.09 199.286 173.057 194.328 173.057H180.507V205.027H194.328C200.126 205.027 204.831 200.322 204.831 194.566ZM187.06 179.61H194.328C195.631 179.61 196.723 180.661 196.723 181.963C196.723 183.055 195.967 183.979 194.916 184.273L187.06 186.29V179.61ZM187.06 193.054L195.715 190.869C197.227 191.415 198.277 192.886 198.277 194.566C198.277 196.751 196.513 198.515 194.328 198.515H187.06V193.054Z" fill="white"/>
<path d="M223.827 205.077C229.793 205.077 235.002 201.8 237.733 196.968L232.019 193.734C230.381 196.59 227.356 198.523 223.827 198.523C220.887 198.523 218.24 197.179 216.517 195.078L239.791 188.65C239.539 180.038 232.482 173.148 223.827 173.148C217.862 173.148 212.653 176.425 209.922 181.256C208.619 183.567 207.863 186.256 207.863 189.112C207.863 197.935 215.005 205.077 223.827 205.077ZM215.635 184.449C217.274 181.593 220.298 179.66 223.827 179.66C227.188 179.66 230.087 181.425 231.767 184.029L214.417 188.818C214.459 187.264 214.921 185.752 215.635 184.449Z" fill="white"/>
</g>
<g filter="url(#filter1_d_450_2234)">
<path d="M52.4878 315.233C51.4638 315.745 50.4398 316.097 49.4158 316.289C48.3598 316.481 47.2718 316.577 46.1838 316.577C44.6478 316.577 43.2398 316.321 41.9598 315.777C40.6798 315.265 39.5598 314.529 38.6638 313.569C37.7358 312.641 37.0318 311.521 36.5198 310.241C36.0078 308.961 35.7838 307.585 35.7838 306.049C35.7838 304.449 36.0398 303.009 36.5518 301.697C37.0638 300.417 37.8318 299.297 38.7918 298.369C39.7518 297.441 40.9038 296.705 42.2478 296.193C43.5918 295.681 45.0638 295.425 46.7278 295.425C47.6878 295.425 48.6158 295.521 49.5118 295.681C50.4078 295.873 51.3678 296.161 52.3278 296.545V299.457C51.4318 299.105 50.5678 298.849 49.6718 298.721C48.7758 298.593 47.8478 298.497 46.9518 298.497C45.7998 298.497 44.7438 298.689 43.7838 299.009C42.8238 299.361 42.0238 299.841 41.3518 300.481C40.6798 301.121 40.1678 301.921 39.8158 302.849C39.4318 303.809 39.2718 304.865 39.2718 306.049C39.2718 307.265 39.4958 308.353 39.9118 309.281C40.2958 310.209 40.8398 310.977 41.5118 311.617C42.1518 312.257 42.9198 312.705 43.8158 313.025C44.7118 313.345 45.6398 313.505 46.6638 313.505C47.6238 313.505 48.6478 313.377 49.7038 313.121C50.7278 312.865 51.6558 312.545 52.4878 312.161V315.233ZM67.8695 302.785H62.7175V316.001H59.3895V302.785H54.2375V300.065H67.8695V302.785ZM69.6318 300.065H73.3438L77.8238 310.881L82.2398 300.065H85.5678L75.6798 322.081H72.2558L76.2558 314.273L69.6318 300.065ZM97.9185 313.249V302.785H91.9025V303.809C91.9025 304.513 91.8705 305.281 91.8065 306.049C91.7425 306.817 91.6465 307.617 91.5185 308.449C91.3905 309.281 91.1985 310.081 90.9425 310.881C90.6865 311.713 90.3985 312.481 90.0465 313.249H97.9185ZM87.9025 316.001V319.777H85.0865V313.249H86.9745C87.3585 312.417 87.7105 311.489 87.9665 310.465C88.2225 309.473 88.4145 308.449 88.5425 307.361C88.6705 306.273 88.7665 305.185 88.8305 304.097C88.8625 303.009 88.8945 301.953 88.8945 300.865V300.065H101.087V313.249H103.583V319.777H100.767V316.001H87.9025ZM119.996 315.521C119.612 315.713 119.228 315.841 118.78 315.969C118.332 316.097 117.852 316.225 117.34 316.289C116.828 316.385 116.348 316.449 115.836 316.481C115.324 316.545 114.812 316.545 114.364 316.545C112.796 316.545 111.452 316.321 110.332 315.873C109.18 315.425 108.252 314.817 107.548 314.049C106.812 313.281 106.268 312.385 105.916 311.329C105.564 310.305 105.404 309.185 105.404 307.969C105.404 306.625 105.628 305.441 106.076 304.385C106.524 303.329 107.164 302.433 107.932 301.729C108.7 301.025 109.564 300.481 110.556 300.097C111.548 299.713 112.572 299.521 113.66 299.521C115.004 299.521 116.188 299.745 117.148 300.129C118.108 300.545 118.876 301.089 119.484 301.793C120.092 302.497 120.54 303.329 120.828 304.257C121.116 305.185 121.276 306.177 121.276 307.201C121.276 307.457 121.244 307.841 121.244 308.321C121.212 308.801 121.18 309.185 121.148 309.505H108.86C108.988 310.337 109.244 311.041 109.628 311.585C110.012 312.129 110.492 312.577 111.068 312.897C111.612 313.217 112.22 313.473 112.892 313.601C113.564 313.729 114.236 313.793 114.94 313.793C115.676 313.793 116.508 313.729 117.404 313.569C118.3 313.441 119.164 313.185 119.996 312.801V315.521ZM118.012 306.977C118.012 305.441 117.596 304.289 116.764 303.489C115.932 302.689 114.876 302.273 113.66 302.273C112.188 302.273 111.004 302.689 110.172 303.521C109.34 304.353 108.86 305.505 108.796 306.977H118.012ZM139.485 316.001H136.157V309.377H128.253V316.001H124.925V300.065H128.253V306.689H136.157V300.065H139.485V316.001ZM146.233 304.833C146.233 305.601 146.297 306.209 146.425 306.657C146.553 307.105 146.777 307.457 147.033 307.713C147.289 307.969 147.641 308.161 148.057 308.257C148.473 308.353 148.953 308.385 149.529 308.385C150.137 308.385 150.777 308.289 151.449 308.097C152.121 307.905 152.729 307.681 153.305 307.361V300.065H156.633V316.001H153.305V309.921C152.473 310.401 151.641 310.721 150.777 310.881C149.881 311.073 149.049 311.137 148.281 311.137C147.577 311.137 146.905 311.041 146.265 310.849C145.625 310.657 145.049 310.369 144.537 309.953C144.025 309.537 143.641 308.993 143.353 308.353C143.033 307.713 142.905 306.945 142.905 306.049V300.065H146.233V304.833ZM174.589 315.521C174.205 315.713 173.821 315.841 173.373 315.969C172.925 316.097 172.445 316.225 171.933 316.289C171.421 316.385 170.941 316.449 170.429 316.481C169.917 316.545 169.405 316.545 168.957 316.545C167.389 316.545 166.045 316.321 164.925 315.873C163.773 315.425 162.845 314.817 162.141 314.049C161.405 313.281 160.861 312.385 160.509 311.329C160.157 310.305 159.997 309.185 159.997 307.969C159.997 306.625 160.221 305.441 160.669 304.385C161.117 303.329 161.757 302.433 162.525 301.729C163.293 301.025 164.157 300.481 165.149 300.097C166.141 299.713 167.165 299.521 168.253 299.521C169.597 299.521 170.781 299.745 171.741 300.129C172.701 300.545 173.469 301.089 174.077 301.793C174.685 302.497 175.133 303.329 175.421 304.257C175.709 305.185 175.869 306.177 175.869 307.201C175.869 307.457 175.837 307.841 175.837 308.321C175.805 308.801 175.773 309.185 175.741 309.505H163.453C163.581 310.337 163.837 311.041 164.221 311.585C164.605 312.129 165.085 312.577 165.661 312.897C166.205 313.217 166.813 313.473 167.485 313.601C168.157 313.729 168.829 313.793 169.533 313.793C170.269 313.793 171.101 313.729 171.997 313.569C172.893 313.441 173.757 313.185 174.589 312.801V315.521ZM172.605 306.977C172.605 305.441 172.189 304.289 171.357 303.489C170.525 302.689 169.469 302.273 168.253 302.273C166.781 302.273 165.597 302.689 164.765 303.521C163.933 304.353 163.453 305.505 163.389 306.977H172.605ZM191.111 302.977C190.567 302.817 189.959 302.657 189.287 302.529C188.583 302.401 187.911 302.337 187.271 302.337C185.447 302.337 184.071 302.817 183.111 303.777C182.151 304.737 181.703 306.145 181.703 308.001C181.703 309.889 182.215 311.297 183.239 312.257C184.263 313.217 185.575 313.697 187.175 313.697C187.911 313.697 188.647 313.633 189.351 313.505C190.055 313.377 190.727 313.153 191.303 312.897V315.681C190.535 316.001 189.767 316.225 188.935 316.353C188.103 316.481 187.367 316.545 186.727 316.545C185.51 316.545 184.391 316.353 183.367 315.969C182.343 315.585 181.447 315.041 180.679 314.337C179.911 313.633 179.335 312.737 178.919 311.681C178.471 310.657 178.279 309.473 178.279 308.129C178.279 306.849 178.471 305.665 178.887 304.609C179.271 303.553 179.847 302.657 180.615 301.889C181.351 301.121 182.247 300.545 183.303 300.129C184.359 299.745 185.543 299.521 186.887 299.521C187.431 299.521 188.103 299.585 188.903 299.681C189.703 299.809 190.439 299.969 191.111 300.225V302.977ZM194.582 300.065H197.91V306.625H200.47L205.27 300.065H209.238L203.318 307.713L209.814 316.001H205.654L200.63 309.409H197.91V316.001H194.582V300.065ZM212.019 300.065H215.347V310.241L225.651 300.065H226.835V316.001H223.507V305.825L213.203 316.001H212.019V300.065ZM239.209 298.337C238.441 298.337 237.705 298.241 237.065 298.017C236.393 297.793 235.817 297.473 235.337 297.025C234.825 296.609 234.441 296.097 234.121 295.489C233.801 294.913 233.641 294.209 233.577 293.441H236.553C236.553 294.209 236.777 294.785 237.193 295.201C237.609 295.617 238.281 295.809 239.209 295.809C240.105 295.809 240.777 295.617 241.193 295.201C241.609 294.785 241.833 294.209 241.865 293.441H244.841C244.777 294.209 244.585 294.913 244.265 295.489C243.945 296.097 243.561 296.609 243.081 297.025C242.569 297.473 241.993 297.793 241.353 298.017C240.681 298.241 239.977 298.337 239.209 298.337ZM231.113 300.065H234.441V310.241L244.745 300.065H245.929V316.001H242.601V305.825L232.297 316.001H231.113V300.065ZM271.392 302.977C270.848 302.817 270.24 302.657 269.568 302.529C268.864 302.401 268.192 302.337 267.552 302.337C265.728 302.337 264.352 302.817 263.392 303.777C262.432 304.737 261.984 306.145 261.984 308.001C261.984 309.889 262.496 311.297 263.52 312.257C264.544 313.217 265.856 313.697 267.456 313.697C268.192 313.697 268.928 313.633 269.632 313.505C270.336 313.377 271.008 313.153 271.584 312.897V315.681C270.816 316.001 270.048 316.225 269.216 316.353C268.384 316.481 267.648 316.545 267.008 316.545C265.792 316.545 264.672 316.353 263.648 315.969C262.624 315.585 261.728 315.041 260.96 314.337C260.192 313.633 259.616 312.737 259.2 311.681C258.752 310.657 258.56 309.473 258.56 308.129C258.56 306.849 258.752 305.665 259.168 304.609C259.552 303.553 260.128 302.657 260.896 301.889C261.632 301.121 262.528 300.545 263.584 300.129C264.64 299.745 265.824 299.521 267.168 299.521C267.712 299.521 268.384 299.585 269.184 299.681C269.984 299.809 270.72 299.969 271.392 300.225V302.977ZM282.071 316.545C280.631 316.545 279.383 316.289 278.327 315.841C277.239 315.393 276.375 314.753 275.671 313.985C274.967 313.217 274.423 312.353 274.103 311.329C273.751 310.305 273.591 309.249 273.591 308.129C273.591 306.913 273.783 305.793 274.167 304.737C274.551 303.681 275.095 302.753 275.831 301.985C276.535 301.217 277.431 300.641 278.487 300.193C279.543 299.745 280.727 299.521 282.071 299.521C283.479 299.553 284.727 299.809 285.815 300.257C286.871 300.705 287.767 301.313 288.471 302.081C289.175 302.849 289.687 303.745 290.039 304.769C290.359 305.793 290.551 306.849 290.551 307.937C290.551 309.153 290.359 310.305 289.975 311.361C289.591 312.417 289.015 313.313 288.311 314.081C287.575 314.849 286.679 315.457 285.623 315.905C284.567 316.353 283.383 316.545 282.071 316.545ZM282.071 313.793C283.031 313.793 283.831 313.633 284.471 313.281C285.111 312.961 285.655 312.513 286.039 311.969C286.423 311.457 286.679 310.849 286.871 310.177C287.031 309.505 287.127 308.833 287.127 308.193C287.127 307.457 287.031 306.721 286.839 306.017C286.647 305.313 286.327 304.705 285.943 304.129C285.527 303.585 285.015 303.137 284.375 302.785C283.735 302.465 282.967 302.273 282.071 302.273C281.111 302.273 280.279 302.465 279.639 302.785C278.999 303.137 278.487 303.585 278.103 304.097C277.719 304.641 277.431 305.249 277.271 305.921C277.079 306.593 277.015 307.233 277.015 307.873C277.015 308.641 277.111 309.345 277.303 310.049C277.495 310.753 277.783 311.393 278.199 311.937C278.583 312.513 279.127 312.961 279.767 313.281C280.407 313.633 281.175 313.793 282.071 313.793ZM300.901 316.225H299.621C299.077 316.225 298.501 316.225 297.861 316.225C297.221 316.225 296.549 316.193 295.845 316.161C295.141 316.161 294.501 316.129 293.925 316.065V300.033C295.077 299.969 296.261 299.905 297.541 299.873C298.821 299.873 300.069 299.841 301.285 299.841C302.117 299.841 302.917 299.905 303.685 300.001C304.453 300.097 305.125 300.289 305.701 300.577C306.277 300.865 306.757 301.249 307.109 301.761C307.429 302.273 307.621 302.913 307.621 303.713C307.621 304.641 307.397 305.409 306.949 306.049C306.501 306.689 305.861 307.233 305.029 307.681C306.181 308.065 307.013 308.577 307.525 309.217C308.037 309.889 308.293 310.721 308.293 311.681C308.293 312.321 308.165 312.929 307.909 313.473C307.653 314.017 307.237 314.497 306.661 314.913C306.085 315.329 305.317 315.649 304.389 315.873C303.429 316.129 302.277 316.225 300.901 316.225ZM301.605 313.505C302.725 313.505 303.557 313.313 304.101 312.897C304.613 312.513 304.901 311.937 304.901 311.233C304.901 310.561 304.613 310.017 304.101 309.633C303.589 309.249 302.725 309.057 301.541 309.057H297.221V313.505H301.605ZM301.189 306.689C302.277 306.689 303.045 306.497 303.557 306.049C304.069 305.633 304.325 305.089 304.325 304.417C304.325 303.809 304.069 303.297 303.621 302.913C303.141 302.529 302.245 302.337 300.965 302.337H297.221V306.689H301.189ZM325.683 315.521C325.299 315.713 324.915 315.841 324.467 315.969C324.019 316.097 323.539 316.225 323.027 316.289C322.515 316.385 322.035 316.449 321.523 316.481C321.011 316.545 320.499 316.545 320.051 316.545C318.483 316.545 317.139 316.321 316.019 315.873C314.867 315.425 313.939 314.817 313.235 314.049C312.499 313.281 311.955 312.385 311.603 311.329C311.251 310.305 311.091 309.185 311.091 307.969C311.091 306.625 311.315 305.441 311.763 304.385C312.211 303.329 312.851 302.433 313.619 301.729C314.387 301.025 315.251 300.481 316.243 300.097C317.235 299.713 318.259 299.521 319.347 299.521C320.691 299.521 321.875 299.745 322.835 300.129C323.795 300.545 324.563 301.089 325.171 301.793C325.779 302.497 326.227 303.329 326.515 304.257C326.803 305.185 326.963 306.177 326.963 307.201C326.963 307.457 326.931 307.841 326.931 308.321C326.899 308.801 326.867 309.185 326.835 309.505H314.547C314.675 310.337 314.931 311.041 315.315 311.585C315.699 312.129 316.179 312.577 316.755 312.897C317.299 313.217 317.907 313.473 318.579 313.601C319.251 313.729 319.923 313.793 320.627 313.793C321.363 313.793 322.195 313.729 323.091 313.569C323.987 313.441 324.851 313.185 325.683 312.801V315.521ZM323.699 306.977C323.699 305.441 323.283 304.289 322.451 303.489C321.619 302.689 320.563 302.273 319.347 302.273C317.875 302.273 316.691 302.689 315.859 303.521C315.027 304.353 314.547 305.505 314.483 306.977H323.699ZM341.87 302.785H336.718V316.001H333.39V302.785H328.238V300.065H341.87V302.785ZM30.5525 353.521L23.2565 341.169L21.3365 354.001H17.9125L21.4645 333.777H22.4245L30.5525 347.857L38.6165 333.777H39.5765L43.2885 354.001H39.8645L37.5925 341.169L30.5525 353.521ZM47.182 333.777H60.59V336.689H50.414V354.001H47.182V333.777ZM67.31 336.689H60.75V333.777H77.102V336.689H70.542V354.001H67.31V336.689ZM82.5185 333.777L88.7905 346.225L94.2945 333.777H97.7185L90.5825 348.977C90.0705 350.065 89.5585 350.929 89.0465 351.633C88.5025 352.337 87.9265 352.881 87.3505 353.265C86.7745 353.649 86.1665 353.937 85.5585 354.097C84.9185 354.257 84.3105 354.321 83.6705 354.321C83.2865 354.321 82.9345 354.321 82.5825 354.257C82.2305 354.225 81.9105 354.161 81.6225 354.097V351.185C81.7825 351.249 81.9745 351.281 82.1985 351.313C82.3905 351.345 82.5825 351.345 82.7745 351.345H83.7025C84.0225 351.345 84.3745 351.313 84.7585 351.185C85.1105 351.089 85.4945 350.897 85.8785 350.641C86.2625 350.385 86.6785 349.969 87.0945 349.425L78.7425 333.777H82.5185ZM108.363 338.065H111.691V348.241L121.995 338.065H123.179V354.001H119.851V343.825L109.547 354.001H108.363V338.065ZM137.761 353.777L131.297 344.369L129.729 354.001H126.433L129.601 338.033H130.753L137.761 348.849L144.769 338.033H145.889L149.089 354.001H145.793L144.033 344.369L137.761 353.777ZM155.787 352.209C155.787 353.041 155.563 353.617 155.115 354.001C154.667 354.385 154.123 354.577 153.547 354.577C152.907 354.577 152.363 354.385 151.915 354.001C151.467 353.617 151.243 353.041 151.243 352.209C151.243 351.377 151.467 350.769 151.915 350.385C152.363 350.001 152.907 349.777 153.547 349.777C154.123 349.777 154.667 350.001 155.115 350.385C155.563 350.769 155.787 351.377 155.787 352.209ZM182.227 333.777H185.459V354.001H182.227V345.393H171.539V354.001H168.307V333.777H171.539V342.321H182.227V333.777ZM193.474 352.209C193.474 353.041 193.25 353.617 192.802 354.001C192.354 354.385 191.81 354.577 191.234 354.577C190.594 354.577 190.05 354.385 189.602 354.001C189.154 353.617 188.93 353.041 188.93 352.209C188.93 351.377 189.154 350.769 189.602 350.385C190.05 350.001 190.594 349.777 191.234 349.777C191.81 349.777 192.354 350.001 192.802 350.385C193.25 350.769 193.474 351.377 193.474 352.209ZM197.801 342.321H208.073C207.881 341.169 207.561 340.177 207.113 339.409C206.633 338.641 206.057 338.033 205.385 337.585C204.681 337.137 203.913 336.849 203.081 336.657C202.217 336.497 201.321 336.401 200.393 336.401C199.433 336.401 198.569 336.497 197.769 336.625C196.937 336.785 196.169 337.009 195.465 337.297V334.417C196.361 334.065 197.225 333.809 198.121 333.649C199.017 333.521 199.913 333.425 200.809 333.425C202.601 333.425 204.169 333.713 205.513 334.257C206.857 334.801 207.945 335.537 208.809 336.465C209.673 337.393 210.313 338.481 210.729 339.697C211.145 340.913 211.369 342.225 211.369 343.569C211.369 345.233 211.145 346.737 210.761 348.081C210.345 349.425 209.737 350.577 208.905 351.537C208.073 352.497 207.017 353.265 205.737 353.777C204.457 354.321 202.985 354.577 201.257 354.577C199.977 354.577 198.857 354.513 197.961 354.321C197.065 354.161 196.201 353.937 195.401 353.617V350.769C196.169 351.057 197.001 351.281 197.865 351.409C198.729 351.537 199.689 351.601 200.713 351.601C203.081 351.601 204.841 351.057 205.993 349.969C207.145 348.881 207.785 347.377 207.977 345.393H197.801V342.321ZM218.224 352.209C218.224 353.041 218 353.617 217.552 354.001C217.104 354.385 216.56 354.577 215.984 354.577C215.344 354.577 214.8 354.385 214.352 354.001C213.904 353.617 213.68 353.041 213.68 352.209C213.68 351.377 213.904 350.769 214.352 350.385C214.8 350.001 215.344 349.777 215.984 349.777C216.56 349.777 217.104 350.001 217.552 350.385C218 350.769 218.224 351.377 218.224 352.209ZM233.977 341.937C234.233 341.937 234.521 341.905 234.841 341.873C235.161 341.841 235.513 341.809 235.865 341.777C236.217 341.745 236.569 341.713 236.921 341.713C237.241 341.713 237.561 341.681 237.849 341.681C238.969 341.681 240.057 341.777 241.081 341.937C242.105 342.129 243.033 342.417 243.833 342.865C244.633 343.313 245.273 343.953 245.753 344.721C246.201 345.489 246.457 346.513 246.457 347.729C246.457 349.745 245.817 351.281 244.569 352.369C243.289 353.457 241.529 354.001 239.289 354.001H230.745V333.777H244.729V336.689H233.977V341.937ZM233.977 351.089H239.001C239.737 351.089 240.377 351.025 240.889 350.833C241.401 350.641 241.817 350.417 242.137 350.097C242.457 349.777 242.681 349.425 242.809 349.041C242.937 348.657 243.033 348.241 243.033 347.793C243.033 347.121 242.873 346.577 242.617 346.129C242.361 345.713 242.009 345.393 241.561 345.137C241.113 344.913 240.569 344.753 239.961 344.657C239.353 344.593 238.713 344.529 238.073 344.529C237.369 344.529 236.697 344.561 236.025 344.593C235.321 344.657 234.649 344.721 233.977 344.785V351.089ZM261.006 354.001L260.622 351.505C259.758 352.593 258.798 353.361 257.774 353.745C256.75 354.161 255.63 354.353 254.414 354.353C253.71 354.353 253.006 354.257 252.334 354.033C251.63 353.841 251.022 353.521 250.478 353.073C249.902 352.657 249.454 352.113 249.134 351.473C248.782 350.833 248.622 350.065 248.622 349.169C248.622 348.209 248.782 347.377 249.166 346.673C249.518 345.969 249.998 345.425 250.606 345.009C251.214 344.593 251.918 344.273 252.718 344.081C253.486 343.889 254.318 343.793 255.214 343.793C255.822 343.793 256.558 343.889 257.454 344.081C258.318 344.273 259.15 344.497 259.95 344.785V343.345C259.95 342.705 259.79 342.193 259.502 341.809C259.214 341.425 258.862 341.105 258.414 340.881C257.966 340.689 257.454 340.529 256.942 340.465C256.398 340.401 255.886 340.337 255.374 340.337C254.478 340.337 253.582 340.433 252.75 340.561C251.886 340.721 251.086 340.977 250.318 341.361V338.481C251.15 338.193 252.014 337.969 252.974 337.777C253.902 337.617 254.83 337.521 255.726 337.521C256.686 337.521 257.646 337.617 258.542 337.777C259.438 337.969 260.238 338.289 260.942 338.737C261.646 339.217 262.19 339.857 262.606 340.689C262.99 341.521 263.214 342.609 263.214 343.921V354.001H261.006ZM259.95 347.505C259.31 347.121 258.638 346.833 257.902 346.609C257.134 346.417 256.366 346.289 255.598 346.289C254.51 346.289 253.646 346.481 253.006 346.865C252.366 347.249 252.046 347.889 252.046 348.817C252.046 349.713 252.302 350.449 252.814 350.993C253.326 351.537 254.19 351.793 255.406 351.793C256.27 351.793 257.102 351.537 257.934 351.025C258.766 350.513 259.438 349.777 259.95 348.817V347.505ZM265.632 338.065H269.344L273.824 348.881L278.24 338.065H281.568L271.68 360.081H268.256L272.256 352.273L265.632 338.065ZM293.511 353.777L287.047 344.369L285.479 354.001H282.183L285.351 338.033H286.503L293.511 348.849L300.519 338.033H301.639L304.839 354.001H301.543L299.783 344.369L293.511 353.777ZM319.569 354.001L319.185 351.505C318.321 352.593 317.361 353.361 316.337 353.745C315.313 354.161 314.193 354.353 312.977 354.353C312.273 354.353 311.569 354.257 310.897 354.033C310.193 353.841 309.585 353.521 309.041 353.073C308.465 352.657 308.017 352.113 307.697 351.473C307.345 350.833 307.185 350.065 307.185 349.169C307.185 348.209 307.345 347.377 307.729 346.673C308.081 345.969 308.561 345.425 309.169 345.009C309.777 344.593 310.481 344.273 311.281 344.081C312.049 343.889 312.881 343.793 313.777 343.793C314.385 343.793 315.121 343.889 316.017 344.081C316.881 344.273 317.713 344.497 318.513 344.785V343.345C318.513 342.705 318.353 342.193 318.065 341.809C317.777 341.425 317.425 341.105 316.977 340.881C316.529 340.689 316.017 340.529 315.505 340.465C314.961 340.401 314.449 340.337 313.937 340.337C313.041 340.337 312.145 340.433 311.313 340.561C310.449 340.721 309.649 340.977 308.881 341.361V338.481C309.713 338.193 310.577 337.969 311.537 337.777C312.465 337.617 313.393 337.521 314.289 337.521C315.249 337.521 316.209 337.617 317.105 337.777C318.001 337.969 318.801 338.289 319.505 338.737C320.209 339.217 320.753 339.857 321.169 340.689C321.553 341.521 321.777 342.609 321.777 343.921V354.001H319.569ZM318.513 347.505C317.873 347.121 317.201 346.833 316.465 346.609C315.697 346.417 314.929 346.289 314.161 346.289C313.073 346.289 312.209 346.481 311.569 346.865C310.929 347.249 310.609 347.889 310.609 348.817C310.609 349.713 310.865 350.449 311.377 350.993C311.889 351.537 312.753 351.793 313.969 351.793C314.833 351.793 315.665 351.537 316.497 351.025C317.329 350.513 318.001 349.777 318.513 348.817V347.505ZM340.61 354.001H337.282V347.377H329.378V354.001H326.05V338.065H329.378V344.689H337.282V338.065H340.61V354.001ZM356.35 354.001L355.966 351.505C355.102 352.593 354.142 353.361 353.118 353.745C352.094 354.161 350.974 354.353 349.758 354.353C349.054 354.353 348.35 354.257 347.678 354.033C346.974 353.841 346.366 353.521 345.822 353.073C345.246 352.657 344.798 352.113 344.478 351.473C344.126 350.833 343.966 350.065 343.966 349.169C343.966 348.209 344.126 347.377 344.51 346.673C344.862 345.969 345.342 345.425 345.95 345.009C346.558 344.593 347.262 344.273 348.062 344.081C348.83 343.889 349.662 343.793 350.558 343.793C351.166 343.793 351.902 343.889 352.798 344.081C353.662 344.273 354.494 344.497 355.294 344.785V343.345C355.294 342.705 355.134 342.193 354.846 341.809C354.558 341.425 354.206 341.105 353.758 340.881C353.31 340.689 352.798 340.529 352.286 340.465C351.742 340.401 351.23 340.337 350.718 340.337C349.822 340.337 348.926 340.433 348.094 340.561C347.23 340.721 346.43 340.977 345.662 341.361V338.481C346.494 338.193 347.358 337.969 348.318 337.777C349.246 337.617 350.174 337.521 351.07 337.521C352.03 337.521 352.99 337.617 353.886 337.777C354.782 337.969 355.582 338.289 356.286 338.737C356.99 339.217 357.534 339.857 357.95 340.689C358.334 341.521 358.558 342.609 358.558 343.921V354.001H356.35ZM355.294 347.505C354.654 347.121 353.982 346.833 353.246 346.609C352.478 346.417 351.71 346.289 350.942 346.289C349.854 346.289 348.99 346.481 348.35 346.865C347.71 347.249 347.39 347.889 347.39 348.817C347.39 349.713 347.646 350.449 348.158 350.993C348.67 351.537 349.534 351.793 350.75 351.793C351.614 351.793 352.446 351.537 353.278 351.025C354.11 350.513 354.782 349.777 355.294 348.817V347.505Z" fill="white"/>
</g>
<defs>
<filter id="filter0_d_450_2234" x="63" y="0" width="249" height="289.358" filterUnits="userSpaceOnUse" color-interpolation-filters="sRGB">
<feFlood flood-opacity="0" result="BackgroundImageFix"/>
<feColorMatrix in="SourceAlpha" type="matrix" values="0 0 0 0 0 0 0 0 0 0 0 0 0 0 0 0 0 0 127 0" result="hardAlpha"/>
<feOffset dy="2"/>
<feGaussianBlur stdDeviation="5"/>
<feComposite in2="hardAlpha" operator="out"/>
<feColorMatrix type="matrix" values="0 0 0 0 0 0 0 0 0 0 0 0 0 0 0 0 0 0 0.15 0"/>
<feBlend mode="normal" in2="BackgroundImageFix" result="effect1_dropShadow_450_2234"/>
<feBlend mode="normal" in="SourceGraphic" in2="effect1_dropShadow_450_2234" result="shape"/>
</filter>
<filter id="filter1_d_450_2234" x="7.9126" y="285.441" width="360.646" height="86.6396" filterUnits="userSpaceOnUse" color-interpolation-filters="sRGB">
<feFlood flood-opacity="0" result="BackgroundImageFix"/>
<feColorMatrix in="SourceAlpha" type="matrix" values="0 0 0 0 0 0 0 0 0 0 0 0 0 0 0 0 0 0 127 0" result="hardAlpha"/>
<feOffset dy="2"/>
<feGaussianBlur stdDeviation="5"/>
<feComposite in2="hardAlpha" operator="out"/>
<feColorMatrix type="matrix" values="0 0 0 0 0 0 0 0 0 0 0 0 0 0 0 0 0 0 0.15 0"/>
<feBlend mode="normal" in2="BackgroundImageFix" result="effect1_dropShadow_450_2234"/>
<feBlend mode="normal" in="SourceGraphic" in2="effect1_dropShadow_450_2234" result="shape"/>
</filter>
</defs>
</svg>
