<svg width="48" height="48" viewBox="0 0 48 48" fill="none" xmlns="http://www.w3.org/2000/svg">
<circle cx="24" cy="24" r="24" fill="#F9E59A"/>
<path d="M28.8133 34.7227H19.5493C19.4139 34.7227 19.3027 34.8339 19.3027 34.9692C19.3027 35.1046 19.4139 35.2158 19.5493 35.2158H28.8133C28.9487 35.2158 29.0599 35.1046 29.0599 34.9692C29.0599 34.8339 28.9487 34.7227 28.8133 34.7227Z" fill="#303030"/>
<path d="M14.1589 11.1476H17.2969V12.5256L17.5241 12.6368C20.2414 14.0051 21.6532 13.1928 21.7113 13.159L21.9095 13.0381V11.1331H22.3785V8.81712H25.9903V11.1331H26.4593V13.0381L26.6575 13.159C26.7155 13.1928 28.1274 14.01 30.8447 12.6368L31.0719 12.5256V11.1476H34.2099V16.8772L35.027 18.2938V10.3305H30.2645L30.2548 12.0179C28.6641 12.7674 27.6729 12.6416 27.2812 12.5304V10.316H26.8122V8H21.5614V10.316H21.0924V12.5304C20.6911 12.6416 19.7047 12.7625 18.114 12.0179V11.1331L18.1285 10.3305H13.3418V15.035C13.6029 14.9093 13.8785 14.7981 14.1589 14.711V11.1476Z" fill="#303030"/>
<path d="M34.207 32.2464C34.207 34.8912 32.0554 37.0379 29.4155 37.0379H27.3509C26.1856 37.0379 25.1026 37.5311 24.1839 38.0484C23.2604 37.5311 22.1822 37.0379 21.017 37.0379H18.9524C16.3076 37.0379 14.1609 34.8863 14.1609 32.2464V26.57C13.8804 26.483 13.6048 26.3718 13.3438 26.2461V32.2464C13.3438 35.3408 15.8628 37.8599 18.9572 37.8599H21.0218C22.0807 37.8599 23.1154 38.3772 23.9857 38.8801L24.1888 39.001L24.3918 38.8801C25.2621 38.3772 26.2968 37.8599 27.3557 37.8599H29.4203C32.5147 37.8599 35.0338 35.3408 35.0338 32.2464V26.8505H34.207V32.2464Z" fill="#303030"/>
<path d="M17.1306 32.2148L16.7875 32.7948L16.4347 32.2148H16.2559V33.1524H16.4588V32.6015L16.7343 33.0509H16.831L17.1064 32.5918L17.1113 33.1524H17.3142V32.2148H17.1306Z" fill="#303030"/>
<path d="M17.5312 33.1524H17.7439V32.3937H18.1885L18.1933 32.2148H17.5312V33.1524Z" fill="#303030"/>
<path d="M19.0031 32.2148H18.2148V32.3938H18.5147V33.153H18.7274V32.3938H19.0272V32.2584L19.3754 32.9064L19.3658 32.916C19.3464 32.945 19.3271 32.9644 19.3077 32.9789C19.2884 32.9934 19.2642 32.9982 19.2352 32.9982C19.211 32.9982 19.1772 32.9934 19.1433 32.9789L19.0901 33.1433C19.1433 33.1627 19.1917 33.1772 19.2449 33.1772C19.3077 33.1772 19.3658 33.1578 19.4189 33.124C19.4721 33.0853 19.5205 33.0321 19.5592 32.9644L19.9605 32.2245H19.7478L19.4915 32.7274L19.2449 32.2245H19.0272H19.0031V32.2148Z" fill="#303030"/>
<path d="M20.4082 32.4258V33.1459H20.6015L20.9543 32.7157V33.1459H21.1573V32.4258H20.9688L20.616 32.8511V32.4258H20.4082Z" fill="#303030"/>
<path d="M22.2349 33.1459V32.4258H22.0368L21.7952 32.8414L21.5632 32.4258H21.3457V33.1459H21.5342V32.7109L21.742 33.0734H21.8338L22.0465 32.7157V33.1459H22.2349Z" fill="#303030"/>
<path d="M22.5914 33.1198C22.6156 33.0957 22.6301 33.0618 22.6301 33.028C22.6301 32.9893 22.6156 32.9603 22.5914 32.9362C22.5673 32.912 22.5335 32.9023 22.4996 32.9023C22.461 32.9023 22.432 32.912 22.4078 32.9362C22.3836 32.9603 22.3691 32.9893 22.3691 33.028C22.3691 33.0667 22.3836 33.0957 22.4078 33.1198C22.432 33.144 22.4658 33.1585 22.4996 33.1585C22.5383 33.1585 22.5673 33.144 22.5914 33.1198Z" fill="#303030"/>
<path d="M23.3533 32.7658H23.7786V33.1524H23.996V32.2148H23.7786V32.5821H23.3533V32.2148H23.1406V33.1524H23.3533V32.7658Z" fill="#303030"/>
<path d="M24.3688 33.1198C24.393 33.0957 24.4075 33.0618 24.4075 33.028C24.4075 32.9893 24.393 32.9603 24.3688 32.9362C24.3446 32.912 24.3108 32.9023 24.277 32.9023C24.2383 32.9023 24.2093 32.912 24.1851 32.9362C24.161 32.9603 24.1465 32.9893 24.1465 33.028C24.1465 33.0667 24.161 33.0957 24.1851 33.1198C24.2093 33.144 24.2431 33.1585 24.277 33.1585C24.3108 33.1585 24.3446 33.144 24.3688 33.1198Z" fill="#303030"/>
<path d="M24.8427 32.9792C24.7461 32.9792 24.6687 32.9405 24.6011 32.868L24.4609 32.9985C24.5044 33.0516 24.5624 33.0951 24.6253 33.1241C24.6929 33.1531 24.7654 33.1676 24.8476 33.1676C24.9394 33.1676 25.0215 33.1483 25.0989 33.1048C25.1714 33.0613 25.2294 33.0033 25.2728 32.9308C25.3163 32.8583 25.3357 32.7762 25.3357 32.6795C25.3357 32.5877 25.3163 32.5055 25.2728 32.4282C25.2294 32.3557 25.1714 32.2977 25.0989 32.2542C25.0264 32.2107 24.9442 32.1914 24.8476 32.1914C24.7654 32.1914 24.6881 32.2059 24.6253 32.2349C24.5576 32.2639 24.5044 32.3026 24.4609 32.3606L24.6011 32.491C24.6687 32.4185 24.7461 32.3799 24.8427 32.3799C24.9104 32.3799 24.9684 32.3992 25.0119 32.4379C25.0602 32.4765 25.0892 32.5297 25.1037 32.5925H24.7316V32.7568H25.1134C25.0989 32.8245 25.0699 32.8777 25.0215 32.9212C24.9684 32.9598 24.9104 32.9792 24.8427 32.9792Z" fill="#303030"/>
<path d="M25.6207 33.1198C25.6449 33.0957 25.6594 33.0618 25.6594 33.028C25.6594 32.9893 25.6449 32.9603 25.6207 32.9362C25.5966 32.912 25.5628 32.9023 25.5289 32.9023C25.4903 32.9023 25.4613 32.912 25.4371 32.9362C25.4129 32.9603 25.3984 32.9893 25.3984 33.028C25.3984 33.0667 25.4129 33.0957 25.4371 33.1198C25.4613 33.144 25.4951 33.1585 25.5289 33.1585C25.5628 33.1585 25.5917 33.144 25.6207 33.1198Z" fill="#303030"/>
<path d="M26.9219 32.3888V32.2148H26.168V33.1524H26.6126C26.7334 33.1524 26.8252 33.1282 26.8929 33.0751C26.9605 33.0219 26.9895 32.9494 26.9895 32.8576C26.9895 32.7706 26.9605 32.6981 26.9026 32.6546C26.8446 32.6063 26.7576 32.5821 26.6416 32.5821H26.3806V32.3888H26.9219ZM26.5981 32.7416C26.7141 32.7416 26.7672 32.7803 26.7672 32.8624C26.7672 32.9059 26.7527 32.9349 26.7237 32.9591C26.6947 32.9833 26.6512 32.9929 26.5981 32.9929H26.3806V32.7416H26.5981Z" fill="#303030"/>
<path d="M27.1457 32.7843C27.0974 32.823 27.0684 32.8762 27.0684 32.9438C27.0684 32.9873 27.078 33.0211 27.1022 33.055C27.1215 33.0888 27.1554 33.113 27.194 33.1323C27.2327 33.1516 27.281 33.1613 27.339 33.1613C27.4453 33.1613 27.5178 33.1275 27.5565 33.0598V33.1516H27.7498V32.7408C27.7498 32.6345 27.7208 32.5524 27.658 32.4992C27.6 32.446 27.513 32.4219 27.4018 32.4219C27.3438 32.4219 27.2858 32.4315 27.2327 32.446C27.1795 32.4605 27.1312 32.4847 27.0925 32.5089L27.1698 32.6538C27.194 32.6345 27.2278 32.6152 27.2665 32.6055C27.3052 32.5959 27.339 32.5862 27.3777 32.5862C27.4308 32.5862 27.4743 32.6007 27.5033 32.6249C27.5323 32.649 27.5468 32.6828 27.5468 32.7312H27.3825C27.2713 32.7263 27.194 32.7457 27.1457 32.7843ZM27.542 32.8472V32.9197C27.5323 32.9535 27.513 32.9776 27.484 32.9921C27.455 33.0066 27.426 33.0163 27.3873 33.0163C27.3487 33.0163 27.3197 33.0066 27.3003 32.9921C27.281 32.9776 27.2665 32.9535 27.2665 32.9293C27.2665 32.8713 27.31 32.8472 27.397 32.8472H27.542Z" fill="#303030"/>
<path d="M28.0753 33.231C28.056 33.2455 28.0367 33.2503 28.0077 33.2503C27.9883 33.2503 27.9642 33.2455 27.9448 33.2407C27.9255 33.231 27.9062 33.2213 27.8868 33.2068L27.8095 33.3567C27.8337 33.376 27.8627 33.3953 27.9013 33.405C27.94 33.4147 27.9738 33.4243 28.0125 33.4243C28.0802 33.4243 28.1382 33.405 28.1865 33.3712C28.2348 33.3373 28.2735 33.2793 28.3073 33.1972L28.6311 32.4336H28.4281L28.2251 32.9217L28.0222 32.4336H27.8047L28.1188 33.1585L28.114 33.1633C28.1092 33.1923 28.0947 33.2165 28.0753 33.231Z" fill="#303030"/>
<path d="M29.4157 32.4258L29.1741 32.8414L28.9421 32.4258H28.7246V33.1459H28.9131V32.7109L29.1257 33.0734H29.2127L29.4254 32.7157V33.1459H29.6138V32.4258H29.4157Z" fill="#303030"/>
<path d="M30.0864 32.4219C30.0284 32.4219 29.9705 32.4315 29.9173 32.446C29.8641 32.4605 29.8158 32.4847 29.7771 32.5089L29.8545 32.6538C29.8786 32.6345 29.9125 32.6152 29.9511 32.6055C29.9898 32.5959 30.0236 32.5862 30.0623 32.5862C30.1154 32.5862 30.1589 32.6007 30.1879 32.6249C30.2169 32.649 30.2314 32.6828 30.2314 32.7312H30.0671C29.9608 32.7312 29.8835 32.7505 29.8351 32.7892C29.7868 32.8278 29.7578 32.881 29.7578 32.9486C29.7578 32.9921 29.7675 33.026 29.7916 33.0598C29.811 33.0936 29.8448 33.1178 29.8835 33.1371C29.9221 33.1565 29.9705 33.1661 30.0284 33.1661C30.1348 33.1661 30.2073 33.1323 30.2459 33.0646V33.1565H30.4392V32.7457C30.4392 32.6393 30.4102 32.5572 30.3474 32.504C30.2798 32.446 30.1976 32.4219 30.0864 32.4219ZM30.2218 32.9245C30.2121 32.9583 30.1928 32.9825 30.1638 32.997C30.1348 33.0115 30.1058 33.0211 30.0671 33.0211C30.0284 33.0211 29.9995 33.0115 29.9801 32.997C29.9608 32.9825 29.9463 32.9583 29.9463 32.9342C29.9463 32.8762 29.9898 32.852 30.0768 32.852H30.2218V32.9245Z" fill="#303030"/>
<path d="M31.1176 32.7061H30.8035V32.4258H30.5957V33.1459H30.8035V32.8752H31.1176V33.1459H31.3255V32.4258H31.1176V32.7061Z" fill="#303030"/>
<path d="M31.7915 32.4219C31.7335 32.4219 31.6755 32.4315 31.6224 32.446C31.5692 32.4605 31.5209 32.4847 31.4822 32.5089L31.5595 32.6538C31.5837 32.6345 31.6175 32.6152 31.6562 32.6055C31.6949 32.5959 31.7287 32.5862 31.7674 32.5862C31.8205 32.5862 31.864 32.6007 31.893 32.6249C31.922 32.649 31.9365 32.6828 31.9365 32.7312H31.7722C31.6659 32.7312 31.5885 32.7505 31.5402 32.7892C31.4919 32.8278 31.4629 32.881 31.4629 32.9486C31.4629 32.9921 31.4726 33.026 31.4967 33.0598C31.5161 33.0936 31.5499 33.1178 31.5885 33.1371C31.6272 33.1565 31.6755 33.1661 31.7335 33.1661C31.8398 33.1661 31.9123 33.1323 31.951 33.0646V33.1565H32.1443V32.7457C32.1443 32.6393 32.1153 32.5572 32.0525 32.504C31.9897 32.446 31.9027 32.4219 31.7915 32.4219ZM31.9268 32.9245C31.9172 32.9583 31.8978 32.9825 31.8688 32.997C31.8398 33.0115 31.8109 33.0211 31.7722 33.0211C31.7335 33.0211 31.7045 33.0115 31.6852 32.997C31.6659 32.9825 31.6514 32.9583 31.6514 32.9342C31.6514 32.8762 31.6949 32.852 31.7819 32.852H31.9268V32.9245Z" fill="#303030"/>
<path d="M31.0364 15.6298L28.1064 20.7066L25.1715 15.625H16.0139C13.2483 15.625 11 17.8733 11 20.6389C11 23.4046 13.2483 25.6529 16.0139 25.6529C17.0728 25.6529 18.093 25.3193 18.9343 24.7101L18.3106 23.6318C17.6579 24.1347 16.8504 24.4103 16.0091 24.4103C13.9252 24.4103 12.2329 22.718 12.2329 20.6341C12.2329 18.5502 13.9252 16.8579 16.0091 16.8579H21.6613V25.6481H22.8991V16.8628H24.4511L27.386 21.9444L25.7807 24.7246L26.3174 25.6529H36.8192L37.3559 24.7246L32.1098 15.6298H31.0364ZM27.3908 24.4151L31.5683 17.1771L35.7458 24.4151H27.3908Z" fill="#303030"/>
<path d="M21.142 30.6765C22.1574 30.6765 22.9842 29.8497 22.9842 28.8343C22.9842 27.819 22.1574 26.9922 21.142 26.9922C20.1266 26.9922 19.3047 27.8238 19.3047 28.8392C19.3047 29.8545 20.1266 30.6765 21.142 30.6765ZM21.142 27.7513C21.7416 27.7513 22.2251 28.2396 22.2251 28.8392C22.2251 29.4387 21.7367 29.9222 21.142 29.9222C20.5425 29.9222 20.0541 29.4339 20.0541 28.8392C20.059 28.2396 20.5425 27.7513 21.142 27.7513Z" fill="#303030"/>
<path d="M17.7816 30.6756C18.328 30.6756 18.8405 30.4386 19.1886 30.018L18.6132 29.5345C18.4053 29.7811 18.1007 29.9213 17.7816 29.9213C17.1821 29.9213 16.6986 29.433 16.6986 28.8382C16.6986 28.2387 17.1869 27.7504 17.7816 27.7504C18.1007 27.7504 18.4053 27.8906 18.6132 28.1372L19.1886 27.6537C18.8356 27.2378 18.3231 26.9961 17.7816 26.9961C16.7662 26.9961 15.9395 27.8229 15.9395 28.8382C15.9395 29.8536 16.7662 30.6756 17.7816 30.6756Z" fill="#303030"/>
<path d="M31.0778 29.9213V30.6756H31.8418V27.7504H32.6734V26.9961H30.2559V27.7504H31.0827L31.0778 29.9213Z" fill="#303030"/>
<path d="M26.1725 29.4716C26.1725 29.138 26.0372 28.8334 25.8099 28.611C25.926 28.4418 25.9936 28.2435 25.9936 28.026C25.9936 27.4603 25.5343 26.9961 24.9638 26.9961H23.373V30.6756H24.9638C25.631 30.6756 26.1725 30.134 26.1725 29.4716ZM24.1273 27.7504H24.9638C25.1137 27.7504 25.2394 27.8712 25.2394 28.0211C25.2394 28.1468 25.1523 28.2532 25.0315 28.2871L24.1273 28.5191V27.7504ZM24.1273 29.2976L25.1233 29.0462C25.2974 29.109 25.4183 29.2782 25.4183 29.4716C25.4183 29.7231 25.2152 29.9261 24.9638 29.9261H24.1273V29.2976Z" fill="#303030"/>
<path d="M28.3588 30.6825C29.0454 30.6825 29.6449 30.3053 29.9592 29.7493L29.3016 29.377C29.1131 29.7058 28.7649 29.9282 28.3588 29.9282C28.0204 29.9282 27.7157 29.7735 27.5175 29.5317L30.1961 28.7919C30.1671 27.8008 29.3548 27.0078 28.3588 27.0078C27.6722 27.0078 27.0727 27.3849 26.7584 27.941C26.6085 28.2069 26.5215 28.5163 26.5215 28.8451C26.5215 29.8605 27.3434 30.6825 28.3588 30.6825ZM27.416 28.3084C27.6045 27.9797 27.9527 27.7572 28.3588 27.7572C28.7456 27.7572 29.0792 27.9603 29.2726 28.2601L27.2758 28.8113C27.2806 28.6324 27.3338 28.4583 27.416 28.3084Z" fill="#303030"/>
</svg>
