<svg width="420" height="116" viewBox="0 0 420 116" fill="none" xmlns="http://www.w3.org/2000/svg">
<circle cx="7.8635" cy="3.58811" r="3.21702" fill="black"/>
<circle cx="3.21702" cy="22.8889" r="3.21702" fill="black"/>
<circle cx="28.2385" cy="13.9553" r="3.21702" fill="black"/>
<circle cx="47.5412" cy="3.58811" r="3.21702" fill="black"/>
<circle cx="50.0432" cy="44.6936" r="3.21702" fill="black"/>
<circle cx="44.3244" cy="23.6037" r="3.21702" fill="black"/>
<circle cx="75.7795" cy="17.1701" r="3.21702" fill="black"/>
<circle cx="75.7795" cy="3.58811" r="3.21702" fill="black"/>
<circle cx="19.6604" cy="52.2014" r="3.21702" fill="black"/>
<circle cx="22.8772" cy="60.7795" r="3.21702" fill="black"/>
<circle cx="51.8303" cy="54.3459" r="3.21702" fill="black"/>
<circle cx="65.7698" cy="50.0569" r="3.21702" fill="black"/>
<circle cx="77.924" cy="85.0881" r="3.21702" fill="black"/>
<circle cx="72.2033" cy="79.3655" r="3.21702" fill="black"/>
<circle cx="45.3967" cy="112.608" r="3.21702" fill="black"/>
<circle cx="53.9748" cy="100.815" r="3.21702" fill="black"/>
<circle cx="53.26" cy="82.5842" r="3.21702" fill="black"/>
<circle cx="64.6975" cy="70.4319" r="3.21702" fill="black"/>
<circle cx="14.6545" cy="109.393" r="3.21702" fill="black"/>
<circle cx="27.8811" cy="106.174" r="3.21702" fill="black"/>
<circle cx="19.6604" cy="98.3108" r="3.21702" fill="black"/>
<circle cx="4.64671" cy="104.744" r="3.21702" fill="black"/>
<circle cx="4.64671" cy="83.6545" r="3.21702" fill="black"/>
<circle cx="4.64671" cy="83.6545" r="3.21702" fill="black"/>
<path d="M4.51413 104.877C7.2507 107.066 10.6242 108.742 14.2972 110.009M4.51413 104.877L20.9224 98.5853M4.51413 104.877V82.8669M4.51413 82.8669L20.9224 98.5853M4.51413 82.8669C10.4181 86.8028 20.2473 91.6863 31.0972 92.6763C32.382 92.7935 33.6811 92.8561 34.9898 92.8561C44.6339 92.8561 51.1529 88.7543 53.7308 82.405M22.1223 61.3646C26.1857 60.3488 30.757 59.6715 35.1591 59.6715C45.3176 59.6715 54.9682 63.3963 54.9682 75.7559C54.9682 78.1584 54.5471 80.3944 53.7308 82.405M22.1223 61.3646L19.244 52.0526M22.1223 61.3646L51.4716 54.3564M19.244 52.0526L45.9949 23.4394H2.48242M19.244 52.0526L49.7196 45.2803M2.48242 23.4394L29.1312 14.4901M2.48242 23.4394L7.39238 3.46094M7.39238 3.46094L29.1312 14.4901M7.39238 3.46094H47.7185M75.7932 3.46094V17.5136L49.7196 45.2803M75.7932 3.46094H47.7185M75.7932 3.46094L49.7196 45.2803M49.7196 45.2803L47.7185 3.46094M49.7196 45.2803C56.6535 45.5215 62.3635 47.5019 66.8419 50.6863M29.1312 14.4901L47.7185 3.46094M66.8419 50.6863C74.939 56.4438 79.0101 66.1371 79.0101 76.6025C79.0101 79.7056 78.6576 82.6586 77.9901 85.4433M66.8419 50.6863L51.4716 54.3564M51.4716 54.3564L65.336 70.6093M77.9901 85.4433L72.5016 79.0093M77.9901 85.4433C74.2943 100.863 60.9429 111.123 44.3227 113.145M72.5016 79.0093L63.7349 89.6292L54.9682 100.249M72.5016 79.0093L65.336 70.6093M44.3227 113.145C42.3274 113.388 40.2851 113.512 38.2066 113.512C30.9882 113.512 21.9864 112.659 14.2972 110.009M44.3227 113.145L54.9682 100.249M54.9682 100.249L42.0497 103.349L35.5905 104.899L29.1312 106.449M14.2972 110.009L29.1312 106.449M29.1312 106.449L20.9224 98.5853M53.7308 82.405L65.336 70.6093" stroke="black" stroke-width="1.04681"/>
<circle cx="101.156" cy="3.58811" r="3.21702" fill="black"/>
<circle cx="96.51" cy="22.8889" r="3.21702" fill="black"/>
<circle cx="121.531" cy="13.9553" r="3.21702" fill="black"/>
<circle cx="140.834" cy="3.58811" r="3.21702" fill="black"/>
<circle cx="143.336" cy="44.6936" r="3.21702" fill="black"/>
<circle cx="137.617" cy="23.6037" r="3.21702" fill="black"/>
<circle cx="169.072" cy="17.1701" r="3.21702" fill="black"/>
<circle cx="169.072" cy="3.58811" r="3.21702" fill="black"/>
<circle cx="112.953" cy="52.2014" r="3.21702" fill="black"/>
<circle cx="116.17" cy="60.7795" r="3.21702" fill="black"/>
<circle cx="145.123" cy="54.3459" r="3.21702" fill="black"/>
<circle cx="159.063" cy="50.0569" r="3.21702" fill="black"/>
<circle cx="171.217" cy="85.0881" r="3.21702" fill="black"/>
<circle cx="165.496" cy="79.3655" r="3.21702" fill="black"/>
<circle cx="138.69" cy="112.608" r="3.21702" fill="black"/>
<circle cx="147.268" cy="100.815" r="3.21702" fill="black"/>
<circle cx="146.553" cy="82.5842" r="3.21702" fill="black"/>
<circle cx="157.99" cy="70.4319" r="3.21702" fill="black"/>
<circle cx="107.949" cy="109.393" r="3.21702" fill="black"/>
<circle cx="121.174" cy="106.174" r="3.21702" fill="black"/>
<circle cx="112.953" cy="98.3108" r="3.21702" fill="black"/>
<circle cx="97.9397" cy="104.744" r="3.21702" fill="black"/>
<circle cx="97.9397" cy="83.6545" r="3.21702" fill="black"/>
<circle cx="97.9397" cy="83.6545" r="3.21702" fill="black"/>
<path d="M97.8071 104.877C100.544 107.066 103.917 108.742 107.59 110.009M97.8071 104.877L114.215 98.5853M97.8071 104.877V82.8669M97.8071 82.8669L114.215 98.5853M97.8071 82.8669C103.711 86.8028 113.54 91.6863 124.39 92.6763C125.675 92.7935 126.974 92.8561 128.283 92.8561C137.927 92.8561 144.446 88.7543 147.024 82.405M115.415 61.3646C119.479 60.3488 124.05 59.6715 128.452 59.6715C138.611 59.6715 148.261 63.3963 148.261 75.7559C148.261 78.1584 147.84 80.3944 147.024 82.405M115.415 61.3646L112.537 52.0526M115.415 61.3646L144.765 54.3564M112.537 52.0526L139.288 23.4394H95.7754M112.537 52.0526L143.013 45.2803M95.7754 23.4394L122.424 14.4901M95.7754 23.4394L100.685 3.46094M100.685 3.46094L122.424 14.4901M100.685 3.46094H141.011M169.086 3.46094V17.5136L143.013 45.2803M169.086 3.46094H141.011M169.086 3.46094L143.013 45.2803M143.013 45.2803L141.011 3.46094M143.013 45.2803C149.946 45.5215 155.656 47.5019 160.135 50.6863M122.424 14.4901L141.011 3.46094M160.135 50.6863C168.232 56.4438 172.303 66.1371 172.303 76.6025C172.303 79.7056 171.951 82.6586 171.283 85.4433M160.135 50.6863L144.765 54.3564M144.765 54.3564L158.629 70.6093M171.283 85.4433L165.795 79.0093M171.283 85.4433C167.587 100.863 154.236 111.123 137.616 113.145M165.795 79.0093L157.028 89.6292L148.261 100.249M165.795 79.0093L158.629 70.6093M137.616 113.145C135.62 113.388 133.578 113.512 131.5 113.512C124.281 113.512 115.279 112.659 107.59 110.009M137.616 113.145L148.261 100.249M148.261 100.249L135.343 103.349L128.883 104.899L122.424 106.449M107.59 110.009L122.424 106.449M122.424 106.449L114.215 98.5853M147.024 82.405L158.629 70.6093" stroke="black" stroke-width="1.04681"/>
<circle cx="199.098" cy="86.8733" r="3.21702" fill="black"/>
<circle cx="199.098" cy="106.533" r="3.21702" fill="black"/>
<circle cx="223.762" cy="93.3108" r="3.21702" fill="black"/>
<circle cx="232.34" cy="112.612" r="3.21702" fill="black"/>
<circle cx="257.004" cy="101.174" r="3.21702" fill="black"/>
<circle cx="244.852" cy="84.3733" r="3.21702" fill="black"/>
<circle cx="271.66" cy="79.01" r="3.21702" fill="black"/>
<circle cx="252.358" cy="64.7131" r="3.21702" fill="black"/>
<circle cx="275.592" cy="51.4866" r="3.21702" fill="black"/>
<circle cx="253.43" cy="45.7678" r="3.21702" fill="black"/>
<circle cx="263.44" cy="13.9553" r="3.21702" fill="black"/>
<circle cx="232.34" cy="20.3889" r="3.21702" fill="black"/>
<circle cx="206.963" cy="8.59593" r="3.21702" fill="black"/>
<circle cx="211.967" cy="38.2639" r="3.21702" fill="black"/>
<circle cx="189.805" cy="39.3342" r="3.21702" fill="black"/>
<circle cx="210.537" cy="70.7912" r="3.21702" fill="black"/>
<circle cx="233.057" cy="57.5647" r="3.21702" fill="black"/>
<path d="M276.152 51.7301C276.152 35.477 271.687 22.6063 263.433 13.9559M276.152 51.7301L252.618 64.5976M276.152 51.7301L253.126 45.8043M276.152 51.7301C276.152 61.2536 274.728 70.5952 271.774 79.0112M198.609 86.4385V106.417C205.72 111.158 214.524 113.359 224.513 113.359C227.284 113.359 229.936 113.179 232.471 112.834M198.609 86.4385C205.55 91.0098 214.524 93.3801 222.82 93.3801M198.609 86.4385L232.471 112.834M222.82 93.3801C232.205 93.3801 239.802 90.5093 245.03 84.4306M222.82 93.3801L257.368 101.53M222.82 93.3801L232.471 112.834M252.618 64.5976C246.523 70.862 236.703 74.5868 226.883 74.5868C221.091 74.5868 215.436 73.4433 210.358 71.2294M252.618 64.5976L232.471 57.148M252.618 64.5976L271.774 79.0112M252.618 64.5976C251.662 73.2023 249.045 79.7624 245.03 84.4306M189.805 39.2012C189.805 25.8446 196.119 15.0493 206.062 8.47613M189.805 39.2012C189.805 55.0803 198.513 66.066 210.358 71.2294M189.805 39.2012L212.323 38.6933M189.805 39.2012L210.358 71.2294M232.471 20.2386C220.619 20.4079 212.323 27.011 212.323 38.6933M232.471 20.2386C245.677 21.0852 253.126 30.0585 253.126 45.8043M232.471 20.2386L263.433 13.9559M232.471 20.2386L206.605 8.12387M212.323 38.6933C212.323 50.5449 222.312 57.148 232.471 57.148M212.323 38.6933L206.062 8.47613M232.471 57.148C239.412 57.148 248.894 52.9153 253.126 45.8043M232.471 57.148L210.358 71.2294M253.126 45.8043L263.433 13.9559M263.433 13.9559C255.694 5.84572 244.623 1.44531 230.777 1.44531C221.656 1.44531 213.332 3.83638 206.605 8.12387M206.605 8.12387C206.423 8.23991 206.242 8.35733 206.062 8.47613M271.774 79.0112L245.03 84.4306M271.774 79.0112C268.685 87.8138 263.922 95.6039 257.368 101.53M245.03 84.4306L257.368 101.53M257.368 101.53C250.87 107.407 242.609 111.451 232.471 112.834" stroke="black" stroke-width="1.04681"/>
<circle cx="294.178" cy="110.108" r="3.21702" fill="black"/>
<circle cx="317.77" cy="110.108" r="3.21702" fill="black"/>
<circle cx="300.612" cy="96.1662" r="3.21702" fill="black"/>
<circle cx="309.906" cy="77.2209" r="3.21702" fill="black"/>
<circle cx="313.123" cy="68.2873" r="3.21702" fill="black"/>
<circle cx="304.903" cy="60.0647" r="3.21702" fill="black"/>
<circle cx="300.612" cy="53.6311" r="3.21702" fill="black"/>
<circle cx="317.77" cy="26.467" r="3.21702" fill="black"/>
<circle cx="294.178" cy="26.467" r="3.21702" fill="black"/>
<circle cx="294.178" cy="74.0061" r="3.21702" fill="black"/>
<circle cx="327.42" cy="60.0647" r="3.21702" fill="black"/>
<circle cx="352.084" cy="46.1233" r="3.21702" fill="black"/>
<circle cx="330.637" cy="51.1272" r="3.21702" fill="black"/>
<circle cx="363.524" cy="23.2483" r="3.21702" fill="black"/>
<circle cx="360.664" cy="31.1116" r="3.21702" fill="black"/>
<circle cx="363.524" cy="43.9787" r="3.21702" fill="black"/>
<circle cx="381.395" cy="43.9787" r="3.21702" fill="black"/>
<circle cx="373.531" cy="38.6194" r="3.21702" fill="black"/>
<circle cx="390.332" cy="34.3303" r="3.21702" fill="black"/>
<circle cx="399.983" cy="32.1858" r="3.21702" fill="black"/>
<circle cx="416.783" cy="62.2092" r="3.21702" fill="black"/>
<circle cx="408.918" cy="55.4162" r="3.21702" fill="black"/>
<circle cx="400.697" cy="62.2092" r="3.21702" fill="black"/>
<circle cx="393.549" cy="68.2873" r="3.21702" fill="black"/>
<circle cx="406.416" cy="87.2326" r="3.21702" fill="black"/>
<circle cx="409.633" cy="94.3811" r="3.21702" fill="black"/>
<circle cx="395.336" cy="88.6623" r="3.21702" fill="black"/>
<circle cx="386.399" cy="88.303" r="3.21702" fill="black"/>
<circle cx="385.326" cy="105.819" r="3.21702" fill="black"/>
<circle cx="379.608" cy="112.612" r="3.21702" fill="black"/>
<circle cx="373.174" cy="100.815" r="3.21702" fill="black"/>
<circle cx="363.166" cy="92.592" r="3.21702" fill="black"/>
<circle cx="355.301" cy="102.959" r="3.21702" fill="black"/>
<circle cx="353.871" cy="81.51" r="3.21702" fill="black"/>
<circle cx="344.936" cy="98.3108" r="3.21702" fill="black"/>
<circle cx="336" cy="97.2405" r="3.21702" fill="black"/>
<circle cx="343.506" cy="86.5178" r="3.21702" fill="black"/>
<circle cx="351.012" cy="67.2131" r="3.21702" fill="black"/>
<circle cx="342.791" cy="64.7131" r="3.21702" fill="black"/>
<circle cx="331.352" cy="69.717" r="3.21702" fill="black"/>
<circle cx="328.135" cy="77.9358" r="3.21702" fill="black"/>
<circle cx="317.77" cy="77.9358" r="3.21702" fill="black"/>
<circle cx="317.77" cy="58.2795" r="3.21702" fill="black"/>
<circle cx="353.514" cy="89.0178" r="3.21702" fill="black"/>
<circle cx="347.08" cy="106.533" r="3.21702" fill="black"/>
<path d="M317.542 77.4289H328.04C329.279 84.6174 332.061 91.3068 336.352 96.9162M317.542 77.4289V110.444M317.542 77.4289L330.637 69.7276M317.542 110.444H294.178M317.542 110.444L300.797 95.8117M294.178 110.444L300.797 95.8117M294.178 110.444V74.5436M317.542 26.1283H294.178V74.5436M317.542 26.1283V59.1435M317.542 26.1283L307.006 42.5512L299.897 53.633L304.587 59.1435M317.542 59.1435H328.209M317.542 59.1435L312.944 68.9634M328.209 59.1435L309.114 77.4289M328.209 59.1435L343.684 64.7192M328.209 59.1435C328.68 56.4884 329.351 53.9307 330.213 51.4883M351.235 67.4397L343.684 64.7192M351.235 67.4397C351.235 58.5749 354.16 48.8328 362.45 44.6492M351.235 67.4397C351.235 72.5086 352.044 77.4619 353.817 81.6925M351.235 67.4397L343.684 86.8521M393.054 68.9634C393.054 58.7047 389.558 48.8345 381.388 44.6492M393.054 68.9634L400.343 62.2117M393.054 68.9634C393.054 76.21 391.155 83.963 386.042 88.8939M312.944 68.9634L309.114 77.4289M312.944 68.9634L304.587 59.1435M300.797 95.8117L309.114 77.4289M343.684 64.7192L330.637 69.7276M304.587 59.1435L294.178 74.5436M330.213 51.4883L352.263 46.8104M330.213 51.4883C335.357 36.9139 347.282 26.4452 363.88 23.8665M362.45 44.6492C365.085 43.3194 368.262 42.5512 372.06 42.5512C375.674 42.5512 378.771 43.3086 381.388 44.6492M362.45 44.6492L352.263 46.8104M352.263 46.8104L360.572 30.3989M363.88 23.8665C366.493 23.4604 369.223 23.25 372.06 23.25C383.674 23.25 393.052 26.5281 400.161 31.9114M363.88 23.8665L360.572 30.3989M360.572 30.3989L373.352 39.148M381.388 44.6492L373.352 39.148M373.352 39.148L390.51 34.5166M400.161 31.9114L390.51 34.5166M400.161 31.9114C410.008 39.3684 415.504 50.8651 416.567 63.284M390.51 34.5166L409.097 55.0372M416.567 63.284C416.694 64.7707 416.757 66.2705 416.757 67.7783C416.757 77.6622 414.21 86.672 409.518 94.0212M416.567 63.284L409.097 55.0372M409.097 55.0372L400.343 62.2117M400.343 62.2117L406.73 87.5904M409.518 94.0212L406.73 87.5904M409.518 94.0212C403.071 104.121 392.573 111.084 379.071 112.87M406.73 87.5904L395.335 88.5223M386.042 88.8939C382.792 92.0274 378.244 94.0212 372.06 94.0212C368.302 94.0212 365.115 93.2027 362.45 91.7585M386.042 88.8939L395.335 88.5223M395.335 88.5223L385.815 106.535M379.071 112.87C376.816 113.169 374.478 113.322 372.06 113.322C362.034 113.19 353.653 110.694 346.956 106.535M379.071 112.87L385.815 106.535M385.815 106.535L373.531 101.027M362.45 91.7585L373.531 101.027M362.45 91.7585C358.454 89.593 355.632 86.021 353.817 81.6925M373.531 101.027L354.944 103.115M346.956 106.535L354.944 103.115M346.956 106.535C342.755 103.926 339.217 100.662 336.352 96.9162M354.944 103.115L354.128 87.5904M353.817 81.6925L354.128 87.5904M354.128 87.5904L344.296 98.3138M336.352 96.9162L344.296 98.3138M344.296 98.3138L343.684 86.8521M343.684 86.8521L330.637 69.7276" stroke="black" stroke-width="1.04681"/>
</svg>
